<svg width="500" height="501" viewBox="0 0 500 501" fill="none" xmlns="http://www.w3.org/2000/svg">
<path d="M412.32 247.96C322.09 195.86 176.32 195.86 86.62 247.96C-3.07998 300.06 -2.55998 384.52 87.62 436.62C177.8 488.72 323.69 488.72 413.34 436.62C502.99 384.52 502.56 300.09 412.32 247.96Z" fill="#F5F5F5"/>
<path d="M47.93 357.81C54.6 353.95 65.39 353.95 72.02 357.81C78.65 361.67 78.61 367.91 71.94 371.76C65.27 375.61 54.48 375.62 47.85 371.76C41.22 367.9 41.25 361.66 47.93 357.81Z" fill="#E0E0E0"/>
<path d="M439.12 330.29C446.12 326.29 457.43 326.29 464.39 330.29C471.35 334.29 471.3 340.88 464.31 344.92C457.32 348.96 445.99 348.92 439.04 344.92C432.09 340.92 432.12 334.33 439.12 330.29Z" fill="#E0E0E0"/>
<path d="M328.71 260.729L72.35 410.429L61.49 404.159L317.85 254.459L328.71 260.729Z" fill="#E0E0E0"/>
<path d="M396.87 340.089C371.87 325.659 331.5 325.659 306.68 340.089C284.74 352.829 282.31 372.569 299.27 386.949C285.58 386.099 271.4 388.709 260.95 394.779C242.6 405.439 242.7 422.729 261.16 433.389C279.62 444.049 309.47 444.049 327.81 433.389C342.41 424.909 345.32 412.229 336.6 402.039C357.6 405.039 380.78 401.849 397.16 392.329C422 377.929 421.86 354.539 396.87 340.089Z" fill="#E0E0E0"/>
<path d="M114.09 93.3595L114.17 120.17L117.42 122.06L117.33 91.4895L114.09 93.3595Z" fill="#F0F0F0"/>
<path d="M79.09 140.429L79.1 144.189L117.42 122.059L114.17 120.169L79.09 140.429Z" fill="#F5F5F5"/>
<path d="M121.25 84.7195L75.0699 111.379L75.1799 150.969L121.36 124.309L121.25 84.7195ZM79.0999 144.189V140.429L78.9999 113.619L114.08 93.3595L117.32 91.4895L117.41 122.059L79.0999 144.189Z" fill="#E0E0E0"/>
<path d="M121.25 84.7195L118 82.8295L71.8199 109.49L75.0699 111.38L121.25 84.7195Z" fill="#F5F5F5"/>
<path d="M71.8199 109.49L71.9299 149.08L75.1799 150.97L75.0699 111.38L71.8199 109.49Z" fill="#F0F0F0"/>
<path d="M389.65 169.65L389.57 196.47L386.32 198.35L386.41 167.78L389.65 169.65Z" fill="#F0F0F0"/>
<path d="M424.66 216.719L424.65 220.479L386.32 198.349L389.57 196.469L424.66 216.719Z" fill="#F5F5F5"/>
<path d="M382.39 200.6L428.56 227.26L428.67 187.67L382.5 161.01L382.39 200.6ZM386.33 198.35L386.41 167.78L389.65 169.65L424.73 189.91L424.66 216.72V220.48L386.33 198.35Z" fill="#E0E0E0"/>
<path d="M382.5 161.01L385.75 159.12L431.92 185.78L428.67 187.67L382.5 161.01Z" fill="#F5F5F5"/>
<path d="M431.92 185.78L431.81 225.37L428.56 227.26L428.67 187.67L431.92 185.78Z" fill="#F0F0F0"/>
<path d="M182.79 120.849V114.339L182.49 114.509L181.95 114.829C177.14 117.739 172.31 122.299 167.82 127.239C167.07 128.049 166.34 128.879 165.61 129.709C161.82 134.049 158.12 138.649 154.3 142.949V153.469L158.89 150.819C164.872 139.396 172.984 129.223 182.79 120.849Z" fill="#EBEBEB"/>
<path d="M182.84 136.999V128.299C178.85 132.538 175.556 137.381 173.08 142.649L182.84 136.999Z" fill="#EBEBEB"/>
<path d="M173.05 142.649C175.526 137.381 178.82 132.538 182.81 128.299V120.849C173.005 129.233 164.895 139.416 158.92 150.849L173.07 142.679L173.05 142.649Z" fill="#FAFAFA"/>
<path d="M163.45 111.88L164.12 111.65C165.347 111.21 166.587 110.7 167.84 110.12L168.3 109.9L169.56 109.28L169.83 109.15C170.46 108.82 171.1 108.47 171.74 108.15L172.15 107.92L172.49 107.72C175.959 105.674 179.245 103.332 182.31 100.72L182.73 100.35V89.3495C175.73 92.9195 168.88 94.0295 163.34 92.3495C159.502 91.1007 156.234 88.5272 154.12 85.0895L154.2 113.68C157.353 113.519 160.467 112.913 163.45 111.88Z" fill="#FAFAFA"/>
<path d="M167.8 127.239C172.29 122.299 177.12 117.739 181.93 114.829L182.47 114.509L182.77 114.339V108.039C173.434 113.521 164.783 120.094 157 127.619C156.07 128.509 155.14 129.409 154.21 130.279V142.949C158.03 138.649 161.73 134.049 165.52 129.709C166.32 128.879 167.05 128.089 167.8 127.239Z" fill="#FAFAFA"/>
<path d="M182.75 108.09V100.33L182.33 100.7C179.265 103.312 175.979 105.654 172.51 107.7L172.17 107.9L171.76 108.13C171.12 108.49 170.48 108.84 169.85 109.13L169.58 109.26L168.32 109.88L167.86 110.1C166.613 110.68 165.373 111.19 164.14 111.63L163.47 111.86C160.488 112.903 157.374 113.519 154.22 113.69L154.27 130.26C155.2 129.39 156.13 128.49 157.06 127.6C164.822 120.103 173.445 113.554 182.75 108.09Z" fill="#EBEBEB"/>
<path d="M182.68 80.3795V72.2395C178.27 71.2395 174.85 67.9995 173.05 63.1895L163.3 68.8195C165.008 72.4603 167.766 75.5067 171.22 77.5669C174.674 79.627 178.665 80.6066 182.68 80.3795Z" fill="#FAFAFA"/>
<path d="M163.31 92.2395C168.85 93.9595 175.72 92.8495 182.7 89.2395V80.3395C178.68 80.5727 174.682 79.5961 171.223 77.5356C167.763 75.4751 165 72.4253 163.29 68.7795L154.09 74.0895V85.0895C156.224 88.4859 159.489 91.0185 163.31 92.2395Z" fill="#EBEBEB"/>
<path d="M184.21 54.8795L152.47 73.2095L152.71 156.21L184.45 137.89L184.21 54.8795ZM154.31 153.47V142.95V130.28L154.26 113.71L154.12 85.0895V74.0895L163.3 68.7895L173 63.1895L182.59 57.6495V72.2395V80.3795V89.2795V100.28V108.04V114.34V120.85V128.3V137L172.8 142.65L158.65 150.82L154.31 153.47Z" fill="white"/>
<path d="M182.65 72.2395V57.6495L173 63.1895C174.82 67.9995 178.24 71.2095 182.65 72.2395Z" fill="#EBEBEB"/>
<path d="M184.45 137.91L152.71 156.24V158.45L186.35 139.02L184.45 137.91Z" fill="#CACACA"/>
<path d="M184.21 54.8795L184.45 137.91L186.35 139.019L186.11 53.7895L184.21 54.8795Z" fill="#F0F0F0"/>
<path d="M191.22 44.9495L147.33 70.2795L147.61 167.28L191.49 141.94L191.22 44.9495ZM152.71 158.45V156.24L152.47 73.2395L184.21 54.9095L186.11 53.8195L186.36 139.05L152.71 158.45Z" fill="#E0E0E0"/>
<path d="M191.22 44.9495L187.6 42.9995L143.72 68.3395L147.34 70.2795L191.22 44.9495Z" fill="#F5F5F5"/>
<path d="M143.72 68.3395L143.99 165.34L147.61 167.28L147.34 70.2795L143.72 68.3395Z" fill="#F0F0F0"/>
<path d="M102.95 103.539L112.51 111.069L112.53 118.429L80.7099 136.809L80.6899 129.449L86.7599 117.399L92.1999 121.629L90.2799 127.609L93.0699 122.299L102.95 103.539Z" fill="#E0E0E0"/>
<path d="M92.4899 107.25C93.9899 106.39 95.2099 107.08 95.2199 108.8C95.1661 109.737 94.8928 110.649 94.4221 111.462C93.9514 112.275 93.2964 112.966 92.5099 113.48C91.0099 114.35 89.7999 113.65 89.7899 111.93C89.8427 110.993 90.1144 110.081 90.5833 109.268C91.0522 108.456 91.7053 107.764 92.4899 107.25Z" fill="#E0E0E0"/>
<path d="M400.8 179.83L391.23 187.37L391.21 194.73L423.03 213.1L423.05 205.74L416.99 193.69L411.54 197.92L413.47 203.9L410.67 198.59L400.8 179.83Z" fill="#E0E0E0"/>
<path d="M411.25 183.54C409.75 182.68 408.53 183.37 408.53 185.09C408.581 186.028 408.852 186.942 409.321 187.756C409.79 188.571 410.444 189.264 411.23 189.78C412.73 190.64 413.95 189.95 413.95 188.22C413.902 187.282 413.632 186.368 413.163 185.555C412.693 184.741 412.038 184.051 411.25 183.54Z" fill="#E0E0E0"/>
<path d="M43.77 335.63L59.93 336.109L76.09 335.63C76.79 346.55 74.66 357.63 71.72 363.1C71.0232 364.496 69.9033 365.637 68.52 366.359C63.74 369.089 56 369.089 51.3 366.359C49.8963 365.627 48.7721 364.453 48.1 363.02C45.19 357.55 43.08 346.49 43.77 335.63Z" fill="white"/>
<path d="M48.54 329.02C42.21 332.67 42.18 338.6 48.47 342.25C54.76 345.9 64.99 345.91 71.32 342.25C77.65 338.59 77.69 332.67 71.4 329.02C65.11 325.37 54.88 325.36 48.54 329.02Z" fill="#EBEBEB"/>
<path d="M51.05 330.47C46.11 333.32 46.05 337.95 50.99 340.8C55.93 343.65 63.88 343.65 68.82 340.8C73.76 337.95 73.82 333.32 68.88 330.47C63.94 327.62 56 327.62 51.05 330.47Z" fill="#E0E0E0"/>
<g opacity="0.15">
<path d="M51.05 330.47C46.11 333.32 46.05 337.95 50.99 340.8C55.93 343.65 63.88 343.65 68.82 340.8C73.76 337.95 73.82 333.32 68.88 330.47C63.94 327.62 56 327.62 51.05 330.47Z" fill="black"/>
</g>
<path d="M33.36 266.68C69.78 278.6 70.11 302.96 61.9 320.31C59.83 323.83 53.56 325.71 48.11 304.13L57.68 305.36L46.53 299.71L43.63 291.09L52.93 291.78L41.13 286.78C38.9554 279.926 36.3604 273.214 33.36 266.68Z" fill="#EE6A1A"/>
<path opacity="0.2" d="M33.36 266.68C69.78 278.6 70.11 302.96 61.9 320.31C59.83 323.83 53.56 325.71 48.11 304.13L57.68 305.36L46.53 299.71L43.63 291.09L52.93 291.78L41.13 286.78C38.9554 279.926 36.3604 273.214 33.36 266.68Z" fill="black"/>
<path opacity="0.2" d="M33.36 266.68C69.78 278.6 70.11 302.96 61.9 320.31C59.83 323.83 53.56 325.71 48.11 304.13L57.68 305.36L46.53 299.71L43.63 291.09L52.93 291.78L41.13 286.78C38.9554 279.926 36.3604 273.214 33.36 266.68Z" fill="white"/>
<path d="M43.66 272.77C62.87 287.35 64.6 304.09 59.18 321.5C61.1 306.14 63.17 290.61 43.66 272.77Z" fill="white"/>
<path d="M95.05 291.43C59.15 296.48 54.79 319.11 59.56 336.64C60.9 340.25 66.42 343.05 75.09 323.86L66 323.41L77.32 320L81.45 312.42L72.68 311.52L84.49 308.86C87.6443 302.836 91.1711 297.014 95.05 291.43Z" fill="#EE6A1A"/>
<path opacity="0.2" d="M95.05 291.43C59.15 296.48 54.79 319.11 59.56 336.64C60.9 340.25 66.42 343.05 75.09 323.86L66 323.41L77.32 320L81.45 312.42L72.68 311.52L84.49 308.86C87.6443 302.836 91.1711 297.014 95.05 291.43Z" fill="white"/>
<path opacity="0.1" d="M95.05 291.43C59.15 296.48 54.79 319.11 59.56 336.64C60.9 340.25 66.42 343.05 75.09 323.86L66 323.41L77.32 320L81.45 312.42L72.68 311.52L84.49 308.86C87.6443 302.836 91.1711 297.014 95.05 291.43Z" fill="black"/>
<path d="M84.44 295.39C64.13 305.77 59.74 321.09 61.9 338.2C62.66 323.57 63.31 308.76 84.44 295.39Z" fill="white"/>
<path d="M22.86 299.91C55.78 300.45 62.24 320.36 59.86 336.68C59.06 340.09 54.39 343.23 44.44 326.91L52.6 325.48L42.01 323.68L37.44 317.31L45.24 315.52L34.3 314.44C30.7887 309.366 26.9681 304.513 22.86 299.91Z" fill="#EE6A1A"/>
<path d="M32.86 302.29C52.32 309.38 58 322.65 58 338.35C55.64 325.26 53.4 311.98 32.86 302.29Z" fill="white"/>
<path opacity="0.2" d="M22.86 299.91C55.78 300.45 62.24 320.36 59.86 336.68C59.06 340.09 54.39 343.23 44.44 326.91L52.6 325.48L42.01 323.68L37.44 317.31L45.24 315.52L34.3 314.44C30.7887 309.366 26.9681 304.513 22.86 299.91Z" fill="white"/>
<path d="M434.77 307.03L451.71 307.53L468.71 307.03C469.44 318.48 467.21 330.14 464.13 335.84C463.402 337.302 462.229 338.496 460.78 339.25C455.78 342.14 447.7 342.14 442.78 339.25C441.307 338.485 440.129 337.254 439.43 335.75C436.25 330.02 434 318.42 434.77 307.03Z" fill="white"/>
<path d="M439.77 300.09C433.13 303.93 433.09 310.14 439.69 313.98C446.29 317.82 457.02 317.81 463.69 313.98C470.36 310.15 470.36 303.93 463.77 300.09C457.18 296.25 446.41 296.26 439.77 300.09Z" fill="#EBEBEB"/>
<path d="M442.4 301.62C437.22 304.62 437.19 309.46 442.33 312.45C447.47 315.44 455.85 315.45 461.03 312.45C466.21 309.45 466.24 304.61 461.09 301.62C455.94 298.63 447.58 298.63 442.4 301.62Z" fill="#E0E0E0"/>
<g opacity="0.15">
<path d="M442.4 301.62C437.22 304.62 437.19 309.46 442.33 312.45C447.47 315.44 455.85 315.45 461.03 312.45C466.21 309.45 466.24 304.61 461.09 301.62C455.94 298.63 447.58 298.63 442.4 301.62Z" fill="black"/>
</g>
<path d="M460.36 272.35C463.11 268.93 466.31 265.86 468.84 262.26C470.57 259.8 472.01 256.8 471.28 253.89C470.877 252.552 470.108 251.354 469.06 250.43C468.012 249.506 466.727 248.893 465.35 248.66C462.555 248.239 459.703 248.873 457.35 250.44C455.036 251.991 453.006 253.929 451.35 256.17C441.812 268.251 437.299 283.545 438.75 298.87C438.786 300.625 439.336 302.332 440.33 303.78C440.936 304.496 441.735 305.023 442.632 305.298C443.529 305.573 444.487 305.584 445.39 305.33C450.01 303.96 449.39 297.72 450.15 294.06C451.776 286.117 455.269 278.675 460.34 272.35H460.36Z" fill="#EE6A1A"/>
<path opacity="0.2" d="M460.36 272.35C463.11 268.93 466.31 265.86 468.84 262.26C470.57 259.8 472.01 256.8 471.28 253.89C470.877 252.552 470.108 251.354 469.06 250.43C468.012 249.506 466.727 248.893 465.35 248.66C462.555 248.239 459.703 248.873 457.35 250.44C455.036 251.991 453.006 253.929 451.35 256.17C441.812 268.251 437.299 283.545 438.75 298.87C438.786 300.625 439.336 302.332 440.33 303.78C440.936 304.496 441.735 305.023 442.632 305.298C443.529 305.573 444.487 305.584 445.39 305.33C450.01 303.96 449.39 297.72 450.15 294.06C451.776 286.117 455.269 278.675 460.34 272.35H460.36Z" fill="white"/>
<path d="M445.12 300.68C445.209 300.662 445.29 300.615 445.35 300.546C445.41 300.477 445.445 300.391 445.45 300.3C445.77 292.89 448.18 267.6 465.61 253.3C465.652 253.267 465.687 253.225 465.713 253.179C465.739 253.132 465.755 253.08 465.76 253.027C465.766 252.974 465.761 252.92 465.745 252.869C465.73 252.818 465.704 252.771 465.67 252.73C465.602 252.647 465.504 252.595 465.397 252.583C465.291 252.572 465.184 252.603 465.1 252.67C447.41 267.24 444.97 292.82 444.64 300.32C444.637 300.427 444.677 300.531 444.749 300.609C444.822 300.688 444.923 300.734 445.03 300.74L445.12 300.68Z" fill="#F0F0F0"/>
<path d="M442.58 301.489C442.947 303.11 443.637 304.64 444.61 305.987C445.583 307.334 446.817 308.471 448.24 309.329C450.905 310.594 453.868 311.092 456.8 310.769C459.771 310.429 462.691 309.737 465.5 308.709C466.89 308.239 468.45 307.6 468.6 305.87C468.624 305.414 468.547 304.959 468.374 304.537C468.201 304.115 467.937 303.737 467.6 303.43C467.314 303.154 467.013 302.894 466.7 302.65C466.555 302.541 466.446 302.39 466.389 302.218C466.332 302.046 466.329 301.86 466.38 301.686C466.431 301.512 466.534 301.358 466.675 301.244C466.816 301.13 466.989 301.062 467.17 301.049C468.002 300.996 468.83 300.893 469.65 300.739C471.561 300.432 473.356 299.621 474.85 298.389C475.938 297.423 476.767 296.199 477.26 294.829C477.68 293.669 477.8 292.21 476.91 291.34C476.363 290.883 475.697 290.592 474.99 290.5C474.37 290.37 473.75 290.25 473.12 290.15C472.944 290.119 472.782 290.033 472.658 289.904C472.535 289.774 472.457 289.608 472.435 289.43C472.414 289.253 472.451 289.073 472.54 288.918C472.629 288.763 472.766 288.641 472.93 288.57L475.56 287.48C476.317 287.233 477.003 286.808 477.56 286.239C477.904 285.71 478.128 285.111 478.216 284.486C478.304 283.861 478.254 283.224 478.07 282.62C477.75 280.97 477.18 279.39 476.79 277.75C476.33 276.121 476.271 274.405 476.62 272.75C471.69 272.205 466.702 272.543 461.89 273.75C460.449 274.052 459.087 274.651 457.89 275.51C456.25 276.82 455.83 278.789 456 280.919C456.003 281.004 455.977 281.088 455.927 281.156C455.876 281.224 455.805 281.274 455.723 281.297C455.641 281.32 455.554 281.315 455.476 281.283C455.397 281.251 455.332 281.193 455.29 281.12L453.59 278.09C453.344 277.641 452.935 277.304 452.447 277.147C451.96 276.991 451.431 277.028 450.97 277.25C449.5 277.979 448.193 278.999 447.13 280.25C446.541 280.918 446.093 281.698 445.811 282.543C445.53 283.388 445.42 284.281 445.49 285.169C445.691 287.606 446.099 290.022 446.71 292.389C446.739 292.517 446.729 292.65 446.681 292.772C446.634 292.894 446.552 292.999 446.444 293.074C446.337 293.149 446.21 293.191 446.079 293.194C445.949 293.196 445.82 293.16 445.71 293.09L445.63 293.04C445.179 292.688 444.609 292.523 444.04 292.579C442.56 292.759 442.18 294.259 442.04 295.579C441.985 297.564 442.166 299.548 442.58 301.489Z" fill="#EE6A1A"/>
<path opacity="0.2" d="M442.58 301.489C442.947 303.11 443.637 304.64 444.61 305.987C445.583 307.334 446.817 308.471 448.24 309.329C450.905 310.594 453.868 311.092 456.8 310.769C459.771 310.429 462.691 309.737 465.5 308.709C466.89 308.239 468.45 307.6 468.6 305.87C468.624 305.414 468.547 304.959 468.374 304.537C468.201 304.115 467.937 303.737 467.6 303.43C467.314 303.154 467.013 302.894 466.7 302.65C466.555 302.541 466.446 302.39 466.389 302.218C466.332 302.046 466.329 301.86 466.38 301.686C466.431 301.512 466.534 301.358 466.675 301.244C466.816 301.13 466.989 301.062 467.17 301.049C468.002 300.996 468.83 300.893 469.65 300.739C471.561 300.432 473.356 299.621 474.85 298.389C475.938 297.423 476.767 296.199 477.26 294.829C477.68 293.669 477.8 292.21 476.91 291.34C476.363 290.883 475.697 290.592 474.99 290.5C474.37 290.37 473.75 290.25 473.12 290.15C472.944 290.119 472.782 290.033 472.658 289.904C472.535 289.774 472.457 289.608 472.435 289.43C472.414 289.253 472.451 289.073 472.54 288.918C472.629 288.763 472.766 288.641 472.93 288.57L475.56 287.48C476.317 287.233 477.003 286.808 477.56 286.239C477.904 285.71 478.128 285.111 478.216 284.486C478.304 283.861 478.254 283.224 478.07 282.62C477.75 280.97 477.18 279.39 476.79 277.75C476.33 276.121 476.271 274.405 476.62 272.75C471.69 272.205 466.702 272.543 461.89 273.75C460.449 274.052 459.087 274.651 457.89 275.51C456.25 276.82 455.83 278.789 456 280.919C456.003 281.004 455.977 281.088 455.927 281.156C455.876 281.224 455.805 281.274 455.723 281.297C455.641 281.32 455.554 281.315 455.476 281.283C455.397 281.251 455.332 281.193 455.29 281.12L453.59 278.09C453.344 277.641 452.935 277.304 452.447 277.147C451.96 276.991 451.431 277.028 450.97 277.25C449.5 277.979 448.193 278.999 447.13 280.25C446.541 280.918 446.093 281.698 445.811 282.543C445.53 283.388 445.42 284.281 445.49 285.169C445.691 287.606 446.099 290.022 446.71 292.389C446.739 292.517 446.729 292.65 446.681 292.772C446.634 292.894 446.552 292.999 446.444 293.074C446.337 293.149 446.21 293.191 446.079 293.194C445.949 293.196 445.82 293.16 445.71 293.09L445.63 293.04C445.179 292.688 444.609 292.523 444.04 292.579C442.56 292.759 442.18 294.259 442.04 295.579C441.985 297.564 442.166 299.548 442.58 301.489Z" fill="black"/>
<path opacity="0.2" d="M442.58 301.489C442.947 303.11 443.637 304.64 444.61 305.987C445.583 307.334 446.817 308.471 448.24 309.329C450.905 310.594 453.868 311.092 456.8 310.769C459.771 310.429 462.691 309.737 465.5 308.709C466.89 308.239 468.45 307.6 468.6 305.87C468.624 305.414 468.547 304.959 468.374 304.537C468.201 304.115 467.937 303.737 467.6 303.43C467.314 303.154 467.013 302.894 466.7 302.65C466.555 302.541 466.446 302.39 466.389 302.218C466.332 302.046 466.329 301.86 466.38 301.686C466.431 301.512 466.534 301.358 466.675 301.244C466.816 301.13 466.989 301.062 467.17 301.049C468.002 300.996 468.83 300.893 469.65 300.739C471.561 300.432 473.356 299.621 474.85 298.389C475.938 297.423 476.767 296.199 477.26 294.829C477.68 293.669 477.8 292.21 476.91 291.34C476.363 290.883 475.697 290.592 474.99 290.5C474.37 290.37 473.75 290.25 473.12 290.15C472.944 290.119 472.782 290.033 472.658 289.904C472.535 289.774 472.457 289.608 472.435 289.43C472.414 289.253 472.451 289.073 472.54 288.918C472.629 288.763 472.766 288.641 472.93 288.57L475.56 287.48C476.317 287.233 477.003 286.808 477.56 286.239C477.904 285.71 478.128 285.111 478.216 284.486C478.304 283.861 478.254 283.224 478.07 282.62C477.75 280.97 477.18 279.39 476.79 277.75C476.33 276.121 476.271 274.405 476.62 272.75C471.69 272.205 466.702 272.543 461.89 273.75C460.449 274.052 459.087 274.651 457.89 275.51C456.25 276.82 455.83 278.789 456 280.919C456.003 281.004 455.977 281.088 455.927 281.156C455.876 281.224 455.805 281.274 455.723 281.297C455.641 281.32 455.554 281.315 455.476 281.283C455.397 281.251 455.332 281.193 455.29 281.12L453.59 278.09C453.344 277.641 452.935 277.304 452.447 277.147C451.96 276.991 451.431 277.028 450.97 277.25C449.5 277.979 448.193 278.999 447.13 280.25C446.541 280.918 446.093 281.698 445.811 282.543C445.53 283.388 445.42 284.281 445.49 285.169C445.691 287.606 446.099 290.022 446.71 292.389C446.739 292.517 446.729 292.65 446.681 292.772C446.634 292.894 446.552 292.999 446.444 293.074C446.337 293.149 446.21 293.191 446.079 293.194C445.949 293.196 445.82 293.16 445.71 293.09L445.63 293.04C445.179 292.688 444.609 292.523 444.04 292.579C442.56 292.759 442.18 294.259 442.04 295.579C441.985 297.564 442.166 299.548 442.58 301.489Z" fill="white"/>
<path d="M450.39 308.93C451.325 304.976 452.666 301.129 454.39 297.45C454.391 297.393 454.404 297.336 454.428 297.285C454.453 297.233 454.487 297.187 454.53 297.15L454.8 296.55C454.321 291.964 452.992 287.508 450.88 283.41C450.843 283.364 450.817 283.31 450.802 283.253C450.788 283.196 450.786 283.137 450.797 283.079C450.807 283.021 450.83 282.966 450.864 282.918C450.898 282.869 450.942 282.829 450.993 282.799C451.043 282.769 451.1 282.751 451.159 282.745C451.217 282.739 451.276 282.746 451.332 282.765C451.388 282.784 451.439 282.815 451.482 282.855C451.524 282.896 451.558 282.945 451.58 283C453.559 286.822 454.868 290.955 455.45 295.22C458.8 288.5 464.15 280.63 472.45 274.89C472.493 274.858 472.542 274.835 472.594 274.823C472.645 274.81 472.699 274.809 472.752 274.818C472.804 274.828 472.854 274.848 472.899 274.877C472.943 274.907 472.981 274.945 473.01 274.99C473.041 275.033 473.062 275.082 473.074 275.133C473.085 275.185 473.086 275.238 473.077 275.29C473.068 275.343 473.048 275.392 473.019 275.437C472.991 275.481 472.954 275.52 472.91 275.55C464.39 281.48 459.02 289.69 455.75 296.55C460.133 294.568 464.998 293.908 469.75 294.65C469.802 294.659 469.852 294.679 469.896 294.708C469.94 294.737 469.978 294.774 470.008 294.818C470.038 294.862 470.059 294.911 470.069 294.962C470.08 295.014 470.08 295.068 470.07 295.12C470.057 295.2 470.019 295.273 469.961 295.331C469.904 295.388 469.83 295.426 469.75 295.44H469.6C469.52 295.44 461.81 294.03 455.15 297.75C453.443 301.384 452.113 305.184 451.18 309.09C451.165 309.168 451.126 309.239 451.069 309.295C451.011 309.35 450.939 309.387 450.86 309.4H450.7C450.648 309.39 450.599 309.37 450.555 309.341C450.511 309.312 450.474 309.275 450.445 309.231C450.416 309.187 450.396 309.137 450.387 309.086C450.377 309.034 450.378 308.981 450.39 308.93Z" fill="#F0F0F0"/>
<path d="M68.5501 222.24L68.5101 207.97L61.0701 203.74L61.1101 217.67V217.99L68.5501 222.24Z" fill="#EE6A1A"/>
<path d="M69.0001 387.47L68.5301 222.24L61.0901 217.99L61.5501 382.91C61.5025 383.443 61.5924 383.979 61.8113 384.467C62.0301 384.956 62.3706 385.38 62.8001 385.699L70.1401 390.18C69.7399 389.858 69.4262 389.442 69.2271 388.969C69.0281 388.496 68.9501 387.98 69.0001 387.47Z" fill="#EE6A1A"/>
<path opacity="0.2" d="M69.0001 387.47L68.5301 222.24L61.0901 217.99L61.5501 382.91C61.5025 383.443 61.5924 383.979 61.8113 384.467C62.0301 384.956 62.3706 385.38 62.8001 385.699L70.1401 390.18C69.7399 389.858 69.4262 389.442 69.2271 388.969C69.0281 388.496 68.9501 387.98 69.0001 387.47Z" fill="white"/>
<path d="M68.5401 207.94V199.73C68.6142 198.203 69.0477 196.715 69.8053 195.388C70.5629 194.06 71.6233 192.93 72.9001 192.09L321.9 48.3396C322.342 48.0239 322.857 47.8276 323.397 47.7698C323.936 47.712 324.482 47.7946 324.98 48.0096L317.63 43.4996C317.127 43.2462 316.565 43.1364 316.003 43.1823C315.442 43.2282 314.905 43.4279 314.45 43.7596L65.4501 187.51C64.1687 188.343 63.1028 189.468 62.3398 190.792C61.5768 192.117 61.1382 193.603 61.0601 195.13V203.35V203.67L68.5001 207.91L68.5401 207.94Z" fill="#EE6A1A"/>
<path opacity="0.3" d="M68.5401 207.94V199.73C68.6142 198.203 69.0477 196.715 69.8053 195.388C70.5629 194.06 71.6233 192.93 72.9001 192.09L321.9 48.3396C322.342 48.0239 322.857 47.8276 323.397 47.7698C323.936 47.712 324.482 47.7946 324.98 48.0096L317.63 43.4996C317.127 43.2462 316.565 43.1364 316.003 43.1823C315.442 43.2282 314.905 43.4279 314.45 43.7596L65.4501 187.51C64.1687 188.343 63.1028 189.468 62.3398 190.792C61.5768 192.117 61.1382 193.603 61.0601 195.13V203.35V203.67L68.5001 207.91L68.5401 207.94Z" fill="white"/>
<path opacity="0.2" d="M68.5501 222.24L68.5101 207.97L61.0701 203.74L61.1101 217.67V217.99L68.5501 222.24Z" fill="black"/>
<path opacity="0.2" d="M68.5501 222.24L68.5101 207.97L61.0701 203.74L61.1101 217.67V217.99L68.5501 222.24Z" fill="white"/>
<path d="M321.89 48.3596C324.32 46.9596 326.3 48.0896 326.31 50.8896V59.1096L68.54 207.94V199.73C68.6141 198.203 69.0476 196.715 69.8053 195.388C70.5629 194.06 71.6232 192.93 72.9 192.09L321.89 48.3596Z" fill="#EE6A1A"/>
<path d="M305.2 61.9595C306.5 61.1995 307.56 61.8095 307.56 63.2995C307.519 64.1156 307.284 64.91 306.875 65.6176C306.467 66.3252 305.896 66.9256 305.21 67.3695C303.91 68.1295 302.85 67.5195 302.85 66.0295C302.889 65.213 303.123 64.4176 303.532 63.7096C303.94 63.0016 304.512 62.4016 305.2 61.9595Z" fill="white"/>
<path d="M312.39 57.7995C313.69 57.0495 314.75 57.6595 314.75 59.1495C314.711 59.9661 314.477 60.7615 314.069 61.4695C313.66 62.1774 313.088 62.7775 312.4 63.2195C311.1 63.9695 310.04 63.3695 310.04 61.8695C310.084 61.0541 310.32 60.2605 310.728 59.5533C311.136 58.8461 311.706 58.2452 312.39 57.7995Z" fill="white"/>
<path d="M319.57 53.6596C320.88 52.8996 321.93 53.5096 321.94 54.9996C321.899 55.8185 321.665 56.616 321.257 57.327C320.848 58.0379 320.277 58.6419 319.59 59.0896C318.29 59.8496 317.23 59.2396 317.22 57.7496C317.261 56.9307 317.495 56.1331 317.904 55.4222C318.312 54.7112 318.883 54.1072 319.57 53.6596Z" fill="white"/>
<path d="M120.38 169.86C121.38 169.3 122.25 169.4 122.71 170.12L125.05 173.72C125.52 174.44 126.41 174.54 127.38 173.98L326.3 59.0895V73.3795L68.55 222.26V207.97L76.19 203.56C77.2681 202.857 78.0864 201.821 78.52 200.61L80.82 194.33C81.2463 193.12 82.0624 192.085 83.14 191.39L120.38 169.86Z" fill="#E0E0E0"/>
<path d="M326.34 73.3995L326.81 238.64C326.73 240.163 326.29 241.645 325.527 242.966C324.764 244.287 323.699 245.409 322.42 246.24L73.44 389.99C71 391.4 69.03 390.27 69.02 387.47L68.55 222.24L326.34 73.3995Z" fill="#EE6A1A"/>
<g opacity="0.4">
<path d="M326.34 73.3995L326.81 238.64C326.73 240.163 326.29 241.645 325.527 242.966C324.764 244.287 323.699 245.409 322.42 246.24L73.44 389.99C71 391.4 69.03 390.27 69.02 387.47L68.55 222.24L326.34 73.3995Z" fill="white"/>
</g>
<path d="M316.15 67.9096C317.88 66.9096 319.28 67.7096 319.29 69.6996C319.229 70.7797 318.915 71.8303 318.373 72.7666C317.831 73.7029 317.076 74.4986 316.17 75.0896L98.0001 201.09C96.2701 202.09 94.8601 201.28 94.8501 199.29C94.9108 198.207 95.2258 197.154 95.7696 196.215C96.3134 195.277 97.0707 194.48 97.9801 193.89L316.15 67.9096Z" fill="white"/>
<path d="M72.67 209.24C72.7195 209.208 72.7767 209.192 72.835 209.192C72.8934 209.192 72.9506 209.208 73 209.24C73.16 209.35 73.15 209.68 73 209.97L71.63 212.22L75.21 210.09C75.2522 210.054 75.3043 210.033 75.3591 210.028C75.414 210.023 75.469 210.035 75.5169 210.062C75.5648 210.089 75.6032 210.13 75.627 210.18C75.6508 210.229 75.6588 210.285 75.65 210.34C75.6457 210.494 75.6033 210.645 75.5266 210.78C75.4498 210.914 75.3411 211.027 75.21 211.11L71.6 213.19L72.98 213.85C73.16 213.94 73.18 214.25 72.98 214.54C72.9043 214.684 72.7945 214.807 72.66 214.9C72.6118 214.923 72.5588 214.936 72.505 214.936C72.4513 214.936 72.3982 214.923 72.35 214.9L70.14 213.84L70.05 213.75V213.57V213.35L70.13 213.17L72.34 209.55C72.4183 209.417 72.5328 209.309 72.67 209.24Z" fill="#E0E0E0"/>
<path d="M80.4901 204.73C80.5365 204.706 80.5879 204.693 80.6401 204.693C80.6922 204.693 80.7436 204.706 80.7901 204.73L83.0001 205.74L83.0801 205.84V206.02V206.24V206.29L83.0101 206.47L80.8101 210.09C80.7367 210.213 80.6335 210.316 80.5101 210.39C80.4626 210.421 80.407 210.438 80.3501 210.438C80.2932 210.438 80.2375 210.421 80.1901 210.39C80.0201 210.29 80.0301 209.96 80.1901 209.66L81.5601 207.42L78.0001 209.54C77.7601 209.67 77.5601 209.54 77.5601 209.28C77.5696 209.129 77.6132 208.982 77.6877 208.85C77.7622 208.718 77.8656 208.605 77.9901 208.52L81.6101 206.44L80.2301 205.78C80.0401 205.69 80.0401 205.38 80.2301 205.07C80.2874 204.937 80.3767 204.82 80.4901 204.73Z" fill="#E0E0E0"/>
<path d="M87.9101 200.44C88.3534 200.152 88.8927 200.051 89.4101 200.16L89.7401 199.72C89.8048 199.631 89.8863 199.556 89.9801 199.5C90.0584 199.476 90.1418 199.476 90.2201 199.5C90.3701 199.5 90.4401 199.68 90.4201 199.9L90.2301 201.26C90.2049 201.423 90.1396 201.578 90.0401 201.71C89.9756 201.798 89.894 201.873 89.8001 201.93L89.6901 201.98L88.6201 202.28C88.583 202.292 88.5435 202.296 88.5048 202.29C88.466 202.285 88.4291 202.27 88.397 202.248C88.3649 202.225 88.3385 202.196 88.32 202.161C88.3014 202.127 88.2911 202.089 88.2901 202.05C88.2744 201.828 88.3462 201.609 88.4901 201.44L88.5901 201.3C88.3533 201.308 88.1227 201.377 87.9201 201.5C87.4588 201.8 87.0746 202.204 86.7984 202.68C86.5222 203.156 86.3618 203.69 86.3301 204.24C86.3301 205.24 87.0501 205.66 87.9301 205.15C88.5746 204.741 89.0639 204.128 89.3201 203.41C89.3916 203.21 89.5247 203.039 89.7001 202.92C89.7641 202.883 89.8362 202.862 89.9101 202.86C90.1301 202.86 90.2101 203.14 90.0901 203.45C89.6723 204.539 88.915 205.464 87.9301 206.09C86.5701 206.87 85.4601 206.24 85.4501 204.67C85.5013 203.821 85.7504 202.997 86.1776 202.262C86.6048 201.528 87.1982 200.904 87.9101 200.44Z" fill="#E0E0E0"/>
<g opacity="0.3">
<path d="M72.67 209.24C72.7195 209.208 72.7767 209.192 72.835 209.192C72.8934 209.192 72.9506 209.208 73 209.24C73.16 209.35 73.15 209.68 73 209.97L71.63 212.22L75.21 210.09C75.2522 210.054 75.3043 210.033 75.3591 210.028C75.414 210.023 75.469 210.035 75.5169 210.062C75.5648 210.089 75.6032 210.13 75.627 210.18C75.6508 210.229 75.6588 210.285 75.65 210.34C75.6457 210.494 75.6033 210.645 75.5266 210.78C75.4498 210.914 75.3411 211.027 75.21 211.11L71.6 213.19L72.98 213.85C73.16 213.94 73.18 214.25 72.98 214.54C72.9043 214.684 72.7945 214.807 72.66 214.9C72.6118 214.923 72.5588 214.936 72.505 214.936C72.4513 214.936 72.3982 214.923 72.35 214.9L70.14 213.84L70.05 213.75V213.57V213.35L70.13 213.17L72.34 209.55C72.4183 209.417 72.5328 209.309 72.67 209.24Z" fill="black"/>
</g>
<g opacity="0.3">
<path d="M80.4901 204.73C80.5365 204.706 80.5879 204.693 80.6401 204.693C80.6922 204.693 80.7436 204.706 80.7901 204.73L83.0001 205.74L83.0801 205.84V206.02V206.24V206.29L83.0101 206.47L80.8101 210.09C80.7367 210.213 80.6335 210.316 80.5101 210.39C80.4626 210.421 80.407 210.438 80.3501 210.438C80.2932 210.438 80.2375 210.421 80.1901 210.39C80.0201 210.29 80.0301 209.96 80.1901 209.66L81.5601 207.42L78.0001 209.54C77.7601 209.67 77.5601 209.54 77.5601 209.28C77.5696 209.129 77.6132 208.982 77.6877 208.85C77.7622 208.718 77.8656 208.605 77.9901 208.52L81.6101 206.44L80.2301 205.78C80.0401 205.69 80.0401 205.38 80.2301 205.07C80.2874 204.937 80.3767 204.82 80.4901 204.73Z" fill="black"/>
</g>
<g opacity="0.3">
<path d="M87.9101 200.44C88.3534 200.152 88.8927 200.051 89.4101 200.16L89.7401 199.72C89.8048 199.631 89.8863 199.556 89.9801 199.5C90.0584 199.476 90.1418 199.476 90.2201 199.5C90.3701 199.5 90.4401 199.68 90.4201 199.9L90.2301 201.26C90.2049 201.423 90.1396 201.578 90.0401 201.71C89.9756 201.798 89.894 201.873 89.8001 201.93L89.6901 201.98L88.6201 202.28C88.583 202.292 88.5435 202.296 88.5048 202.29C88.466 202.285 88.4291 202.27 88.397 202.248C88.3649 202.225 88.3385 202.196 88.32 202.161C88.3014 202.127 88.2911 202.089 88.2901 202.05C88.2744 201.828 88.3462 201.609 88.4901 201.44L88.5901 201.3C88.3533 201.308 88.1227 201.377 87.9201 201.5C87.4588 201.8 87.0746 202.204 86.7984 202.68C86.5222 203.156 86.3618 203.69 86.3301 204.24C86.3301 205.24 87.0501 205.66 87.9301 205.15C88.5746 204.741 89.0639 204.128 89.3201 203.41C89.3916 203.21 89.5247 203.039 89.7001 202.92C89.7641 202.883 89.8362 202.862 89.9101 202.86C90.1301 202.86 90.2101 203.14 90.0901 203.45C89.6723 204.539 88.915 205.464 87.9301 206.09C86.5701 206.87 85.4601 206.24 85.4501 204.67C85.5013 203.821 85.7504 202.997 86.1776 202.262C86.6048 201.528 87.1982 200.904 87.9101 200.44Z" fill="black"/>
</g>
<g opacity="0.6">
<path d="M314.9 121.71L315.13 181.12C315.135 183.809 314.433 186.453 313.093 188.786C311.754 191.118 309.825 193.058 307.5 194.41L178.79 269.09C178.016 269.539 177.137 269.777 176.241 269.779C175.346 269.781 174.466 269.547 173.69 269.101C172.913 268.655 172.268 268.013 171.819 267.238C171.369 266.464 171.132 265.585 171.13 264.69L170.91 205.28C170.901 202.59 171.601 199.946 172.938 197.613C174.276 195.28 176.205 193.34 178.53 191.99L307.24 117.33C308.013 116.881 308.89 116.643 309.784 116.64C310.677 116.638 311.556 116.87 312.332 117.313C313.107 117.757 313.753 118.396 314.204 119.168C314.654 119.939 314.895 120.816 314.9 121.71Z" fill="white"/>
</g>
<path d="M262.71 157.68L236.88 206.74L229.57 220.64L234.6 204.99L220.36 193.93L204.5 225.44L204.56 244.69L287.79 196.63L287.73 177.38L262.71 157.68Z" fill="#EE6A1A"/>
<path d="M235.42 183.69C237.479 182.347 239.192 180.538 240.42 178.41C241.648 176.282 242.358 173.893 242.49 171.44C242.49 166.94 239.29 165.12 235.37 167.38C233.31 168.72 231.596 170.528 230.367 172.657C229.138 174.786 228.43 177.175 228.3 179.63C228.31 184.09 231.5 185.95 235.42 183.69Z" fill="#EE6A1A"/>
<g opacity="0.3">
<path d="M262.71 157.68L236.88 206.74L229.57 220.64L234.6 204.99L220.36 193.93L204.5 225.44L204.56 244.69L287.79 196.63L287.73 177.38L262.71 157.68Z" fill="white"/>
<path d="M235.42 183.69C237.479 182.347 239.192 180.538 240.42 178.41C241.648 176.282 242.358 173.893 242.49 171.44C242.49 166.94 239.29 165.12 235.37 167.38C233.31 168.72 231.596 170.528 230.367 172.657C229.138 174.786 228.43 177.175 228.3 179.63C228.31 184.09 231.5 185.95 235.42 183.69Z" fill="white"/>
</g>
<g opacity="0.6">
<path d="M239 245.7L239.1 281.58C239.1 282.794 238.782 283.987 238.176 285.04C237.571 286.093 236.7 286.969 235.65 287.58L174.47 323.09C174.119 323.291 173.721 323.397 173.317 323.396C172.912 323.396 172.514 323.289 172.164 323.086C171.814 322.884 171.523 322.593 171.32 322.242C171.118 321.892 171.011 321.494 171.01 321.09L170.91 285.2C170.905 283.984 171.221 282.789 171.827 281.735C172.433 280.681 173.307 279.806 174.36 279.2L235.52 243.71C235.871 243.504 236.27 243.394 236.677 243.391C237.083 243.389 237.484 243.494 237.837 243.696C238.19 243.898 238.483 244.19 238.688 244.541C238.892 244.893 239 245.293 239 245.7Z" fill="white"/>
</g>
<path d="M198.93 275.76L217.88 277.389L199 300.85L198.93 275.76Z" fill="#EE6A1A"/>
<g opacity="0.3">
<path d="M198.93 275.76L217.88 277.389L199 300.85L198.93 275.76Z" fill="white"/>
</g>
<g opacity="0.6">
<path d="M314.2 202.09L314.3 237.97C314.303 239.185 313.986 240.379 313.38 241.433C312.775 242.486 311.902 243.361 310.85 243.97L250 278.84C249.649 279.044 249.25 279.151 248.844 279.152C248.438 279.153 248.038 279.046 247.687 278.843C247.335 278.64 247.042 278.348 246.839 277.997C246.636 277.645 246.53 277.246 246.53 276.84L246.43 240.96C246.43 239.745 246.748 238.552 247.354 237.499C247.959 236.446 248.83 235.57 249.88 234.96L310.73 200.09C311.081 199.886 311.48 199.778 311.886 199.777C312.293 199.777 312.692 199.883 313.044 200.086C313.395 200.289 313.688 200.581 313.891 200.932C314.094 201.284 314.2 201.683 314.2 202.09Z" fill="white"/>
</g>
<path d="M273.51 230.85L292.45 232.48L273.58 255.94L273.51 230.85Z" fill="#EE6A1A"/>
<g opacity="0.3">
<path d="M273.51 230.85L292.45 232.48L273.58 255.94L273.51 230.85Z" fill="white"/>
</g>
<g opacity="0.7">
<path d="M136.43 199.44L136.45 208.49L84.68 238.38L84.66 229.34L136.43 199.44Z" fill="white"/>
<path d="M115.65 225.44L115.67 229.94L84.7101 247.82L84.7001 243.32L115.65 225.44Z" fill="white"/>
<path d="M199.45 163.1L199.47 168.38L184.48 177.03L184.46 171.76L199.45 163.1Z" fill="white"/>
<path d="M228.2 146.5L228.21 151.78L208.23 163.32L208.22 158.04L228.2 146.5Z" fill="white"/>
<path d="M285.99 113.14L286 118.42L271.01 127.07L271 121.8L285.99 113.14Z" fill="white"/>
<path d="M314.74 96.5396L314.75 101.82L294.77 113.36L294.75 108.08L314.74 96.5396Z" fill="white"/>
<path d="M260.71 127.73L260.72 133.01L236.87 146.79L236.85 141.51L260.71 127.73Z" fill="white"/>
</g>
<g opacity="0.7">
<path d="M136.83 250.28L136.84 254.27L84.7701 284.33L84.7601 280.34L136.83 250.28Z" fill="white"/>
<path d="M105.22 275.46L105.24 279.44L84.7902 291.25L84.7802 287.26L105.22 275.46Z" fill="white"/>
<path d="M136.89 273.66L136.9 277.65L84.8401 307.71L84.8301 303.72L136.89 273.66Z" fill="white"/>
<path d="M136.87 266.74L136.88 270.72L84.8201 300.78L84.8101 296.8L136.87 266.74Z" fill="white"/>
<path d="M136.81 243.36L136.82 247.34L84.7501 277.4L84.7401 273.42L136.81 243.36Z" fill="white"/>
<path d="M125.67 287.07L125.68 291.05L84.8601 314.62L84.8401 310.64L125.67 287.07Z" fill="white"/>
</g>
<g opacity="0.7">
<path d="M135.3 312.09C139.78 309.5 143.43 311.58 143.45 316.73C143.47 321.88 139.84 328.16 135.35 330.73L91.77 355.9C87.28 358.49 83.63 356.42 83.62 351.26C83.61 346.1 87.23 339.83 91.71 337.26L135.3 312.09Z" fill="#EE6A1A"/>
</g>
<path d="M107.21 334.11L107.25 341.09L105.38 342.16L105.35 338.99L104.04 342.31L103.14 342.83L101.81 341.15L101.82 344.22L99.9501 345.3L99.9301 338.31L101.61 337.34L103.61 339.92L105.53 335.08L107.21 334.11Z" fill="white"/>
<path d="M111.41 331.53C113.41 330.39 114.84 331.09 114.85 333.2C114.787 334.348 114.443 335.464 113.846 336.448C113.25 337.431 112.42 338.253 111.43 338.84C109.43 339.98 107.99 339.28 107.98 337.17C108.044 336.02 108.39 334.904 108.989 333.92C109.587 332.936 110.419 332.115 111.41 331.53ZM111.41 336.93C111.83 336.655 112.175 336.28 112.413 335.838C112.65 335.396 112.773 334.901 112.77 334.4C112.77 333.31 112.16 333 111.4 333.4C110.982 333.675 110.639 334.051 110.403 334.493C110.167 334.935 110.046 335.429 110.05 335.93C110.05 337.02 110.66 337.32 111.41 336.93Z" fill="white"/>
<path d="M120.15 331.48L121.44 332.89L119.25 334.16L118.25 333L117.69 333.32V335.09L115.69 336.27V329.27L118.62 327.57C120.31 326.57 121.39 326.99 121.4 328.57C121.356 329.661 120.911 330.697 120.15 331.48ZM118.39 331.11C118.634 330.993 118.842 330.81 118.988 330.582C119.135 330.355 119.215 330.091 119.22 329.82C119.22 329.31 118.95 329.15 118.39 329.48L117.64 329.91V331.54L118.38 331.11" fill="white"/>
<path d="M127 322.68L127.01 324.47L124.08 326.15V326.97L126.65 325.49L126.66 327.18L124.09 328.66V329.59L127.13 327.83V329.61L122.08 332.52L122.06 325.54L127 322.68Z" fill="white"/>
<path d="M253.26 427.01L253.25 431.38L223.51 414.21L223.52 409.84L253.26 427.01Z" fill="#EE6A1A"/>
<path d="M253.28 420.41L253.26 424.79L241.17 417.81L241.18 413.42L253.28 420.41Z" fill="#EE6A1A"/>
<path d="M203.97 405.15L203.96 409.53L182.55 397.17L182.56 392.79L203.97 405.15Z" fill="#EE6A1A"/>
<path d="M216.9 406.019L216.89 410.389L182.57 390.579L182.58 386.199L216.9 406.019Z" fill="#EE6A1A"/>
<path d="M235.42 410.099L235.41 414.479L201.44 394.869L198.13 392.959L182.36 383.859L182.37 379.469L198.15 388.579L201.46 390.489L235.42 410.099Z" fill="#EE6A1A"/>
<path d="M225.52 388.79L225.51 393.16L182.63 368.41L182.65 364.04L225.52 388.79Z" fill="#EE6A1A"/>
<path d="M223.06 380.76L223.04 385.13L214.67 380.29L214.68 375.92L223.06 380.76Z" fill="#EE6A1A"/>
<path d="M220.62 414.77L220.61 419.14L208.52 412.16L208.53 407.79L220.62 414.77Z" fill="#EE6A1A"/>
<path d="M253.34 398.239L253.33 402.609L229.49 388.849L229.5 384.469L253.34 398.239Z" fill="#EE6A1A"/>
<path d="M253.36 391.65L253.35 396.02L236.68 386.4L233 384.28L210.91 371.52L210.92 367.15L233.01 379.9L236.69 382.03L253.36 391.65Z" fill="#EE6A1A"/>
<path d="M235.54 368.15L235.52 372.52L207.78 356.5L207.79 352.13L235.54 368.15Z" fill="#EE6A1A"/>
<path d="M207.73 371.91L207.72 376.28L182.65 361.81L182.66 357.44L207.73 371.91Z" fill="#EE6A1A"/>
<path d="M204.09 363.21L204.08 367.58L182.67 355.22L182.68 350.85L204.09 363.21Z" fill="#EE6A1A"/>
<path d="M201.57 348.54L201.56 352.91L182.48 341.9L182.49 337.52L201.57 348.54Z" fill="#EE6A1A"/>
<path d="M217.02 364.07L217.01 368.44L182.69 348.63L182.7 344.26L217.02 364.07Z" fill="#EE6A1A"/>
<path d="M210.71 347.21L210.7 351.59L182.5 335.31L182.51 330.93L210.71 347.21Z" fill="#EE6A1A"/>
<path d="M253.38 385.06L253.37 389.44L223.63 372.27L223.64 367.89L253.38 385.06Z" fill="#EE6A1A"/>
<path d="M253.4 378.459L253.38 382.829L241.29 375.849L241.3 371.479L253.4 378.459Z" fill="#EE6A1A"/>
<g opacity="0.6">
<path d="M253.26 427.01L253.25 431.38L223.51 414.21L223.52 409.84L253.26 427.01Z" fill="white"/>
<path d="M253.28 420.41L253.26 424.79L241.17 417.81L241.18 413.42L253.28 420.41Z" fill="white"/>
<path d="M203.97 405.15L203.96 409.53L182.55 397.17L182.56 392.79L203.97 405.15Z" fill="white"/>
<path d="M216.9 406.019L216.89 410.389L182.57 390.579L182.58 386.199L216.9 406.019Z" fill="white"/>
<path d="M235.42 410.099L235.41 414.479L201.44 394.869L198.13 392.959L182.36 383.859L182.37 379.469L198.15 388.579L201.46 390.489L235.42 410.099Z" fill="white"/>
<path d="M225.52 388.79L225.51 393.16L182.63 368.41L182.65 364.04L225.52 388.79Z" fill="white"/>
<path d="M223.06 380.76L223.04 385.13L214.67 380.29L214.68 375.92L223.06 380.76Z" fill="white"/>
<path d="M220.62 414.77L220.61 419.14L208.52 412.16L208.53 407.79L220.62 414.77Z" fill="white"/>
<path d="M253.34 398.24L253.33 402.61L229.49 388.85L229.5 384.47L253.34 398.24Z" fill="white"/>
<path d="M253.36 391.65L253.35 396.02L236.68 386.4L233 384.28L210.91 371.52L210.92 367.15L233.01 379.9L236.69 382.03L253.36 391.65Z" fill="white"/>
<path d="M235.54 368.15L235.52 372.52L207.78 356.5L207.79 352.13L235.54 368.15Z" fill="white"/>
<path d="M207.73 371.91L207.72 376.28L182.65 361.81L182.66 357.44L207.73 371.91Z" fill="white"/>
<path d="M204.09 363.21L204.08 367.58L182.67 355.22L182.68 350.85L204.09 363.21Z" fill="white"/>
<path d="M201.57 348.54L201.56 352.91L182.48 341.9L182.49 337.52L201.57 348.54Z" fill="white"/>
<path d="M217.02 364.07L217.01 368.44L182.69 348.63L182.7 344.26L217.02 364.07Z" fill="white"/>
<path d="M210.71 347.21L210.7 351.59L182.5 335.31L182.51 330.93L210.71 347.21Z" fill="white"/>
<path d="M253.38 385.06L253.37 389.44L223.63 372.27L223.64 367.89L253.38 385.06Z" fill="white"/>
<path d="M253.4 378.46L253.38 382.83L241.29 375.85L241.3 371.48L253.4 378.46Z" fill="white"/>
</g>
<path d="M168 341.85L157.86 335.85C157.784 335.804 157.72 335.74 157.676 335.663C157.633 335.586 157.61 335.498 157.61 335.41V272.21L144.53 264.639L145.04 263.76L158.37 271.48C158.448 271.524 158.513 271.587 158.559 271.665C158.605 271.742 158.629 271.83 158.63 271.919V335.15L168.52 340.97L168 341.85Z" fill="#EE6A1A"/>
<path d="M170.92 338.79C171.971 339.477 172.845 340.401 173.472 341.489C174.099 342.576 174.462 343.796 174.53 345.05C174.53 347.35 172.9 348.28 170.89 347.12C169.839 346.432 168.965 345.508 168.338 344.42C167.711 343.333 167.348 342.113 167.28 340.86C167.29 338.56 168.92 337.63 170.92 338.79Z" fill="#EE6A1A"/>
<path d="M146.67 261.089C147.722 261.775 148.599 262.7 149.228 263.787C149.857 264.875 150.22 266.095 150.29 267.349C150.29 269.649 148.65 270.579 146.65 269.419C145.597 268.734 144.721 267.809 144.092 266.722C143.463 265.634 143.099 264.414 143.03 263.159C143 260.869 144.67 259.939 146.67 261.089Z" fill="#EE6A1A"/>
<g opacity="0.2">
<path d="M168 341.85L157.86 335.85C157.784 335.804 157.72 335.74 157.676 335.663C157.633 335.586 157.61 335.498 157.61 335.41V272.21L144.53 264.639L145.04 263.76L158.37 271.48C158.448 271.524 158.513 271.587 158.559 271.665C158.605 271.742 158.629 271.83 158.63 271.919V335.15L168.52 340.97L168 341.85Z" fill="white"/>
<path d="M170.92 338.79C171.971 339.477 172.845 340.401 173.472 341.489C174.099 342.576 174.462 343.796 174.53 345.05C174.53 347.35 172.9 348.28 170.89 347.12C169.839 346.432 168.965 345.508 168.338 344.42C167.711 343.333 167.348 342.113 167.28 340.86C167.29 338.56 168.92 337.63 170.92 338.79Z" fill="white"/>
<path d="M146.67 261.089C147.722 261.775 148.599 262.7 149.228 263.787C149.857 264.875 150.22 266.095 150.29 267.349C150.29 269.649 148.65 270.579 146.65 269.419C145.597 268.734 144.721 267.809 144.092 266.722C143.463 265.634 143.099 264.414 143.03 263.159C143 260.869 144.67 259.939 146.67 261.089Z" fill="white"/>
</g>
<path d="M430.12 131.69L430.1 136.07L400.37 118.9L400.38 114.52L430.12 131.69Z" fill="#EE6A1A"/>
<path d="M430.13 125.09L430.12 129.48L418.03 122.49L418.04 118.11L430.13 125.09Z" fill="#EE6A1A"/>
<path d="M380.83 109.84L380.82 114.21L359.41 101.85L359.42 97.4796L380.83 109.84Z" fill="#EE6A1A"/>
<path d="M393.76 110.7L393.75 115.08L359.43 95.2595L359.44 90.8895L393.76 110.7Z" fill="#EE6A1A"/>
<path d="M412.27 114.78L412.26 119.17L378.3 99.5595L374.99 97.6495L359.22 88.5395L359.23 84.1495L375 93.2595L378.31 95.1695L412.27 114.78Z" fill="#EE6A1A"/>
<path d="M397.48 119.45L397.46 123.82L385.38 116.85L385.39 112.47L397.48 119.45Z" fill="#EE6A1A"/>
<g opacity="0.6">
<path d="M430.12 131.69L430.1 136.07L400.37 118.9L400.38 114.52L430.12 131.69Z" fill="white"/>
<path d="M430.13 125.09L430.12 129.48L418.03 122.49L418.04 118.11L430.13 125.09Z" fill="white"/>
<path d="M380.83 109.84L380.82 114.21L359.41 101.85L359.42 97.4796L380.83 109.84Z" fill="white"/>
<path d="M393.76 110.7L393.75 115.08L359.43 95.2595L359.44 90.8895L393.76 110.7Z" fill="white"/>
<path d="M412.27 114.78L412.26 119.17L378.3 99.5595L374.99 97.6495L359.22 88.5395L359.23 84.1495L375 93.2595L378.31 95.1695L412.27 114.78Z" fill="white"/>
<path d="M397.48 119.45L397.46 123.82L385.38 116.85L385.39 112.47L397.48 119.45Z" fill="white"/>
</g>
<path d="M430.13 148.74L430.12 153.12L418.03 146.14L418.04 141.76L430.13 148.74Z" fill="#EE6A1A"/>
<path d="M393.76 134.35L393.75 138.72L359.43 118.91L359.44 114.54L393.76 134.35Z" fill="#EE6A1A"/>
<path d="M412.27 138.43L412.26 142.81L378.3 123.21L374.99 121.29L359.22 112.19L359.23 107.8L375 116.91L378.31 118.82L412.27 138.43Z" fill="#EE6A1A"/>
<g opacity="0.6">
<path d="M430.13 148.74L430.12 153.12L418.03 146.14L418.04 141.76L430.13 148.74Z" fill="white"/>
<path d="M393.76 134.35L393.75 138.72L359.43 118.91L359.44 114.54L393.76 134.35Z" fill="white"/>
<path d="M412.27 138.43L412.26 142.81L378.3 123.21L374.99 121.29L359.22 112.19L359.23 107.8L375 116.91L378.31 118.82L412.27 138.43Z" fill="white"/>
</g>
<path d="M377.28 135.09C375.28 133.93 373.65 134.86 373.65 137.16C373.682 138.276 373.976 139.369 374.51 140.35L323.51 169.87L307.43 160.49C307.352 159.246 306.986 158.039 306.359 156.962C305.732 155.886 304.863 154.971 303.82 154.29C301.82 153.13 300.19 154.06 300.18 156.36C300.248 157.613 300.611 158.833 301.238 159.92C301.865 161.008 302.739 161.933 303.79 162.62C305.46 163.62 306.85 163.09 307.28 161.62L323.51 171.09L375 141.18C375.568 142.072 376.33 142.824 377.23 143.38C379.23 144.54 380.86 143.61 380.87 141.31C380.798 140.065 380.435 138.854 379.812 137.774C379.189 136.694 378.322 135.775 377.28 135.09Z" fill="#EE6A1A"/>
<path opacity="0.2" d="M377.28 135.09C375.28 133.93 373.65 134.86 373.65 137.16C373.682 138.276 373.976 139.369 374.51 140.35L323.51 169.87L307.43 160.49C307.352 159.246 306.986 158.039 306.359 156.962C305.732 155.886 304.863 154.971 303.82 154.29C301.82 153.13 300.19 154.06 300.18 156.36C300.248 157.613 300.611 158.833 301.238 159.92C301.865 161.008 302.739 161.933 303.79 162.62C305.46 163.62 306.85 163.09 307.28 161.62L323.51 171.09L375 141.18C375.568 142.072 376.33 142.824 377.23 143.38C379.23 144.54 380.86 143.61 380.87 141.31C380.798 140.065 380.435 138.854 379.812 137.774C379.189 136.694 378.322 135.775 377.28 135.09Z" fill="white"/>
<path d="M318.75 290.41C310.23 296.33 300.63 300.41 293.52 308.36C280.22 323.17 279.91 347.02 290.35 363.96C300.79 380.9 320.21 391.09 340 393.43C360.74 395.87 382.5 390.14 398.78 377.05C415.06 363.96 425.4 343.5 425.39 322.62C425.38 301.74 414.69 280.94 397.2 269.53C381.2 259.12 358.3 256.15 342.29 268.06C334.19 274.06 328.8 282.97 320.72 289.01C320.06 289.49 319.41 289.95 318.75 290.41Z" fill="#37474F"/>
<path opacity="0.2" d="M318.75 290.41C310.23 296.33 300.63 300.41 293.52 308.36C280.22 323.17 279.91 347.02 290.35 363.96C300.79 380.9 320.21 391.09 340 393.43C360.74 395.87 382.5 390.14 398.78 377.05C415.06 363.96 425.4 343.5 425.39 322.62C425.38 301.74 414.69 280.94 397.2 269.53C381.2 259.12 358.3 256.15 342.29 268.06C334.19 274.06 328.8 282.97 320.72 289.01C320.06 289.49 319.41 289.95 318.75 290.41Z" fill="black"/>
<path opacity="0.1" d="M318.75 290.41C310.23 296.33 300.63 300.41 293.52 308.36C280.22 323.17 279.91 347.02 290.35 363.96C300.79 380.9 320.21 391.09 340 393.43C360.74 395.87 382.5 390.14 398.78 377.05C415.06 363.96 425.4 343.5 425.39 322.62C425.38 301.74 414.69 280.94 397.2 269.53C381.2 259.12 358.3 256.15 342.29 268.06C334.19 274.06 328.8 282.97 320.72 289.01C320.06 289.49 319.41 289.95 318.75 290.41Z" fill="white"/>
<path opacity="0.1" d="M322.22 377.23L322.28 376.81C322.979 372.183 325.108 367.89 328.368 364.534C331.627 361.177 335.856 358.924 340.46 358.09C348.687 356.518 356.57 353.498 363.74 349.17C368.83 346.1 373.63 342.33 379.34 340.66C384.894 339.072 390.823 339.424 396.15 341.66C391.36 336.66 383.15 334.4 376.56 336.66C381.11 329.66 385.11 322.2 386.68 314.03C388.25 305.86 387.14 296.9 382.21 290.2C380.109 287.348 377.403 284.996 374.286 283.314C371.17 281.631 367.719 280.66 364.182 280.468C360.645 280.277 357.11 280.871 353.83 282.208C350.549 283.545 347.606 285.591 345.21 288.2C340.33 293.54 337.58 301.04 334.38 307.52C332.07 312.18 329.7 316.94 325.9 320.52C320.18 325.87 311.95 327.8 306.02 332.92C299.29 338.73 296.39 348.01 296.36 356.92C296.472 362.916 297.345 368.874 298.96 374.65C305.915 381.286 314.211 386.357 323.29 389.52C321.968 385.565 321.602 381.353 322.22 377.23Z" fill="black"/>
<g opacity="0.2">
<path d="M414.24 319.75C413.967 305.33 408.594 291.474 399.075 280.64C389.555 269.806 376.505 262.695 362.24 260.57C360.26 260.772 358.296 261.106 356.36 261.57C371.362 262.363 385.506 268.81 395.946 279.612C406.386 290.414 412.348 304.77 412.63 319.79C413.01 339.23 403.51 359.04 387.2 372.79C374.42 383.57 357.44 390.71 338.78 393.28L339.98 393.44C341.65 393.63 343.34 393.77 344.98 393.86C361.55 390.65 376.57 383.81 388.18 374.02C404.91 359.95 414.63 339.67 414.24 319.75Z" fill="white"/>
</g>
<path d="M300.5 370.74C301.099 373.94 301.433 377.184 301.5 380.44L303.8 379.57C304.89 379.158 306.077 379.076 307.213 379.334C308.349 379.592 309.384 380.178 310.19 381.02L310.31 381.14C310.72 381.571 311.281 381.827 311.875 381.855C312.469 381.883 313.051 381.68 313.5 381.29C313.741 381.081 313.936 380.825 314.074 380.538C314.211 380.251 314.288 379.938 314.3 379.62L314.61 369.82L300.5 370.74Z" fill="#FFA8A7"/>
<path d="M309.38 407.09C304.61 412.2 295.82 416.67 289.43 412.31L290.14 413.94C296.53 418.29 305.32 413.83 310.14 408.72C314.96 403.61 311.82 400.07 316.14 395.54C317.765 393.99 319.034 392.107 319.86 390.02C319.67 389.54 319.48 388.9 319.26 388.17C318.331 390.296 317.034 392.243 315.43 393.92C311.06 398.49 314.16 402.03 309.38 407.09Z" fill="#F5F5F5"/>
<path d="M316.84 382.87C316.107 381.823 315.594 380.639 315.33 379.39C315.287 379.098 315.181 378.82 315.019 378.575C314.856 378.329 314.642 378.123 314.39 377.97L314.34 379.62C314.324 380.076 314.174 380.519 313.908 380.89C313.643 381.262 313.273 381.547 312.845 381.71C312.418 381.872 311.952 381.905 311.507 381.803C311.061 381.702 310.655 381.471 310.34 381.14L310.22 381.02C309.414 380.178 308.379 379.592 307.243 379.334C306.107 379.076 304.92 379.158 303.83 379.57L301.49 380.45C301.143 380.582 300.845 380.818 300.637 381.126C300.43 381.434 300.322 381.798 300.33 382.17C300.48 388.87 297.33 397.76 294.07 402.65C290.7 404.05 287.78 408.65 289.27 412.01L289.42 412.35C295.81 416.71 304.6 412.24 309.37 407.13C314.14 402.02 311.05 398.49 315.37 393.96C316.974 392.283 318.271 390.336 319.2 388.21C318.662 386.33 317.868 384.533 316.84 382.87Z" fill="#455A64"/>
<path d="M307.49 392.54C307.683 392.634 307.905 392.649 308.108 392.582C308.312 392.515 308.482 392.37 308.58 392.18C308.679 391.993 308.7 391.774 308.638 391.571C308.576 391.369 308.437 391.199 308.25 391.1C306.849 390.309 305.268 389.894 303.66 389.894C302.052 389.894 300.471 390.309 299.07 391.1C298.93 391.63 298.78 392.15 298.62 392.67C299.961 391.884 301.483 391.459 303.038 391.436C304.592 391.413 306.126 391.793 307.49 392.54Z" fill="white"/>
<path d="M308.67 388.92C308.859 388.996 309.07 388.998 309.261 388.927C309.452 388.856 309.61 388.716 309.704 388.535C309.797 388.354 309.82 388.145 309.768 387.948C309.715 387.751 309.591 387.58 309.42 387.47C307.954 386.67 306.309 386.258 304.64 386.272C302.97 386.286 301.332 386.726 299.88 387.55C299.78 388.1 299.67 388.64 299.55 389.19C302.33 387.72 305.14 387.14 308.67 388.92Z" fill="white"/>
<path d="M306.2 396.15C306.394 396.243 306.617 396.257 306.821 396.188C307.025 396.119 307.193 395.972 307.29 395.78C307.386 395.591 307.404 395.372 307.34 395.17C307.276 394.968 307.136 394.8 306.95 394.7C305.58 393.923 304.036 393.508 302.462 393.492C300.887 393.476 299.335 393.861 297.95 394.61C297.75 395.18 297.53 395.73 297.31 396.28C298.654 395.49 300.179 395.063 301.738 395.04C303.296 395.017 304.834 395.4 306.2 396.15Z" fill="white"/>
<path d="M294.08 402.65C290.71 404.05 287.79 408.65 289.28 412.01L289.43 412.35C295.72 416.64 304.34 412.35 309.16 407.35C305.14 399.48 296.74 401.44 294.08 402.65Z" fill="white"/>
<path d="M304.79 399.67C304.979 399.745 305.19 399.748 305.381 399.677C305.572 399.606 305.73 399.466 305.824 399.285C305.917 399.104 305.94 398.895 305.888 398.698C305.835 398.501 305.711 398.33 305.54 398.22C304.169 397.445 302.625 397.031 301.05 397.017C299.476 397.003 297.924 397.389 296.54 398.14C296.25 398.76 295.96 399.36 295.66 399.94C298.45 398.47 301.26 397.88 304.79 399.67Z" fill="white"/>
<path d="M290.46 390.21C289.716 393.383 288.713 396.49 287.46 399.5L289.91 399.64C291.073 399.709 292.191 400.116 293.127 400.81C294.063 401.505 294.776 402.456 295.18 403.55V403.7C295.384 404.26 295.796 404.721 296.33 404.987C296.864 405.253 297.479 405.304 298.05 405.13C298.353 405.033 298.633 404.875 298.874 404.668C299.114 404.46 299.31 404.205 299.45 403.92L303.68 395.08L290.46 390.21Z" fill="#FFA8A7"/>
<path d="M283.9 427.09C277.47 429.84 267.62 430.38 263.54 423.81V425.59C267.62 432.15 277.47 431.59 283.9 428.87C290.33 426.15 288.9 421.64 294.68 419.23C296.79 418.464 298.71 417.253 300.31 415.68C300.31 415.15 300.42 414.5 300.51 413.74C298.804 415.315 296.83 416.571 294.68 417.449C288.92 419.859 290.33 424.35 283.9 427.09Z" fill="#F5F5F5"/>
<path d="M300.51 407.91C300.249 406.656 300.249 405.363 300.51 404.11C300.588 403.826 300.603 403.528 300.553 403.237C300.503 402.947 300.389 402.671 300.22 402.43L299.51 403.92C299.37 404.205 299.174 404.46 298.933 404.668C298.693 404.876 298.413 405.033 298.11 405.13C297.539 405.304 296.924 405.253 296.39 404.987C295.856 404.721 295.444 404.26 295.24 403.7V403.55C294.836 402.457 294.123 401.505 293.187 400.81C292.251 400.116 291.133 399.709 289.97 399.64L287.48 399.5C287.109 399.479 286.741 399.573 286.425 399.77C286.11 399.967 285.864 400.257 285.72 400.6C283.15 406.79 276.72 413.67 271.72 416.82C268.07 416.73 263.55 419.76 263.55 423.45V423.81C267.63 430.38 277.48 429.81 283.91 427.09C290.34 424.37 288.91 419.86 294.69 417.45C296.84 416.572 298.814 415.315 300.52 413.74C300.79 411.805 300.786 409.843 300.51 407.91Z" fill="#455A64"/>
<path d="M288.06 412.98C288.198 413.132 288.388 413.227 288.593 413.245C288.798 413.262 289.001 413.201 289.163 413.074C289.324 412.947 289.432 412.763 289.463 412.56C289.494 412.357 289.446 412.149 289.33 411.98C288.366 410.693 287.087 409.677 285.615 409.031C284.143 408.384 282.529 408.129 280.93 408.29C280.59 408.723 280.24 409.143 279.88 409.55C281.424 409.366 282.988 409.586 284.422 410.187C285.855 410.788 287.109 411.75 288.06 412.98Z" fill="white"/>
<path d="M290.6 410.14C290.737 410.305 290.933 410.41 291.147 410.431C291.361 410.451 291.574 410.386 291.74 410.25C291.904 410.115 292.009 409.921 292.033 409.711C292.057 409.5 291.999 409.288 291.87 409.12C290.853 407.795 289.515 406.752 287.982 406.09C286.448 405.429 284.771 405.17 283.11 405.34C282.8 405.8 282.47 406.26 282.11 406.71C285.28 406.49 288.09 407.09 290.6 410.14Z" fill="white"/>
<path d="M285.43 415.76C285.568 415.912 285.758 416.007 285.963 416.025C286.168 416.042 286.371 415.981 286.533 415.854C286.694 415.727 286.802 415.543 286.833 415.34C286.864 415.137 286.816 414.929 286.7 414.76C285.759 413.502 284.516 412.503 283.086 411.854C281.656 411.206 280.086 410.929 278.52 411.05C278.11 411.49 277.69 411.91 277.26 412.32C278.803 412.139 280.366 412.361 281.798 412.964C283.23 413.567 284.481 414.53 285.43 415.76Z" fill="white"/>
<path d="M271.71 416.82C268.06 416.73 263.54 419.76 263.54 423.45V423.81C267.54 430.28 277.17 429.81 283.6 427.21C283.11 418.38 274.63 416.78 271.71 416.82Z" fill="white"/>
<path d="M282.71 418.41C282.849 418.572 283.047 418.673 283.26 418.691C283.473 418.71 283.684 418.645 283.85 418.51C284.015 418.378 284.121 418.186 284.146 417.976C284.17 417.766 284.111 417.556 283.98 417.39C283.04 416.129 281.795 415.128 280.363 414.479C278.931 413.83 277.357 413.555 275.79 413.68C275.28 414.14 274.79 414.57 274.26 414.97C277.4 414.75 280.2 415.35 282.71 418.41Z" fill="white"/>
<path d="M328.24 306.57L296.05 324.5C293.139 326.13 290.81 328.63 289.39 331.65C287.97 334.669 287.529 338.057 288.13 341.34L294.38 374.99L289.26 391.26C293.68 397.19 303.82 397.49 303.82 397.49C309.48 386.14 313.64 381.32 316.82 371.81C320 362.3 322.18 355.73 322.18 355.73L348.91 348.43C355.023 346.769 360.497 343.313 364.626 338.509C368.754 333.705 371.347 327.773 372.07 321.48C372.53 317.43 372.55 314.67 372.55 314.67L328.24 306.57Z" fill="#EE6A1A"/>
<path opacity="0.3" d="M328.24 306.57L296.05 324.5C293.139 326.13 290.81 328.63 289.39 331.65C287.97 334.669 287.529 338.057 288.13 341.34L294.38 374.99L289.26 391.26C293.68 397.19 303.82 397.49 303.82 397.49C309.48 386.14 313.64 381.32 316.82 371.81C320 362.3 322.18 355.73 322.18 355.73L348.91 348.43C355.023 346.769 360.497 343.313 364.626 338.509C368.754 333.705 371.347 327.773 372.07 321.48C372.53 317.43 372.55 314.67 372.55 314.67L328.24 306.57Z" fill="black"/>
<path opacity="0.1" d="M328.24 306.57L296.05 324.5C293.139 326.13 290.81 328.63 289.39 331.65C287.97 334.669 287.529 338.057 288.13 341.34L294.38 374.99L289.26 391.26C293.68 397.19 303.82 397.49 303.82 397.49C309.48 386.14 313.64 381.32 316.82 371.81C320 362.3 322.18 355.73 322.18 355.73L348.91 348.43C355.023 346.769 360.497 343.313 364.626 338.509C368.754 333.705 371.347 327.773 372.07 321.48C372.53 317.43 372.55 314.67 372.55 314.67L328.24 306.57Z" fill="white"/>
<path opacity="0.2" d="M328.48 315.61C328.482 319.202 329.757 322.678 332.08 325.42L309.37 339.64C306.037 341.724 303.569 344.941 302.42 348.7L294.42 374.99L301.67 345.71C302.506 342.341 304.627 339.434 307.58 337.61L328.58 324.61C326.36 319.29 328.48 315.61 328.48 315.61Z" fill="black"/>
<path d="M306.94 269.61L299.7 276.15C295.07 270.24 288.86 266.25 283.43 257.97C281.87 255.97 282.03 252.04 280.97 250.02C280.13 248.44 278.67 246.02 278.06 244.73C278.007 244.609 277.927 244.502 277.826 244.416C277.725 244.33 277.607 244.268 277.479 244.235C277.351 244.201 277.218 244.197 277.088 244.222C276.958 244.247 276.836 244.301 276.73 244.38C275.24 245.52 276.05 248.18 276.85 250.97C277.8 254.27 272.85 249.8 272.15 249.04C268.99 246.1 266.28 238.89 264.15 239.61C262.02 240.33 263.7 243.92 263.7 243.92C261.7 244.34 262.47 247.5 262.47 247.5C261.3 249.57 261.63 252.76 264.04 255.73C265.79 257.88 270.52 260.84 272.98 262.29C274.001 262.899 274.875 263.725 275.54 264.71L291 287.77C291.703 288.812 292.61 289.701 293.667 290.383C294.724 291.064 295.908 291.524 297.148 291.734C298.388 291.945 299.657 291.901 300.88 291.607C302.102 291.312 303.252 290.772 304.26 290.02L314.79 282.14L306.94 269.61Z" fill="#FFA8A7"/>
<path opacity="0.3" d="M306.94 269.61L299.7 276.15C295.07 270.24 288.86 266.25 283.43 257.97C281.87 255.97 282.03 252.04 280.97 250.02C280.13 248.44 278.67 246.02 278.06 244.73C278.007 244.609 277.927 244.502 277.826 244.416C277.725 244.33 277.607 244.268 277.479 244.235C277.351 244.201 277.218 244.197 277.088 244.222C276.958 244.247 276.836 244.301 276.73 244.38C275.24 245.52 276.05 248.18 276.85 250.97C277.8 254.27 272.85 249.8 272.15 249.04C268.99 246.1 266.28 238.89 264.15 239.61C262.02 240.33 263.7 243.92 263.7 243.92C261.7 244.34 262.47 247.5 262.47 247.5C261.3 249.57 261.63 252.76 264.04 255.73C265.79 257.88 270.52 260.84 272.98 262.29C274.001 262.899 274.875 263.725 275.54 264.71L291 287.77C291.703 288.812 292.61 289.701 293.667 290.383C294.724 291.064 295.908 291.524 297.148 291.734C298.388 291.945 299.657 291.901 300.88 291.607C302.102 291.312 303.252 290.772 304.26 290.02L314.79 282.14L306.94 269.61Z" fill="black"/>
<path d="M330.37 251.5C322.51 251.16 312.08 262.82 305.37 269.81C306.666 275.339 309.752 280.286 314.15 283.88C319.784 279.913 325.199 275.643 330.37 271.09V251.5Z" fill="#455A64"/>
<path opacity="0.3" d="M330.37 251.5C322.51 251.16 312.08 262.82 305.37 269.81C306.666 275.339 309.752 280.286 314.15 283.88C319.784 279.913 325.199 275.643 330.37 271.09V251.5Z" fill="white"/>
<path d="M373.09 317.18C367.38 322.67 339.96 323.68 325.97 310.36C327.31 300.95 326.86 290.88 325.97 280.92C325.08 270.96 319.25 253.53 330.37 251.5C345.22 248.6 354.92 248.83 364.85 254.42C375.44 272.09 374 298.49 373.09 317.18Z" fill="#455A64"/>
<path d="M373.09 317.18C367.38 322.67 339.96 323.68 325.97 310.36C327.31 300.95 326.86 290.88 325.97 280.92C325.08 270.96 319.25 253.53 330.37 251.5C345.22 248.6 354.92 248.83 364.85 254.42C375.44 272.09 374 298.49 373.09 317.18Z" fill="#455A64"/>
<path opacity="0.2" d="M373.09 317.18C367.38 322.67 339.96 323.68 325.97 310.36C327.31 300.95 326.86 290.88 325.97 280.92C325.08 270.96 319.25 253.53 330.37 251.5C345.22 248.6 354.92 248.83 364.85 254.42C375.44 272.09 374 298.49 373.09 317.18Z" fill="white"/>
<path d="M351 329.01C351.025 329.152 351.025 329.297 351 329.44C350.963 329.557 350.909 329.668 350.84 329.77C350.754 329.889 350.657 329.999 350.55 330.1C350.412 330.215 350.265 330.319 350.11 330.41L326.56 344.09C326.344 344.212 326.116 344.312 325.88 344.39L325.62 344.47L325.28 344.56L324.86 344.63H324.76H324.19H324C323.813 344.64 323.626 344.64 323.44 344.63H323.35C323.165 344.61 322.981 344.58 322.8 344.54H322.7L322.23 344.4H322.14C321.959 344.333 321.785 344.249 321.62 344.15L282.76 321.72C282.605 321.629 282.457 321.525 282.32 321.41L282.21 321.29C282.138 321.218 282.071 321.141 282.01 321.06C281.979 321.012 281.953 320.962 281.93 320.91C281.883 320.842 281.846 320.768 281.82 320.69C281.814 320.636 281.814 320.583 281.82 320.53C281.814 320.456 281.814 320.383 281.82 320.31V321.69C281.814 321.763 281.814 321.836 281.82 321.91C281.83 322.047 281.879 322.178 281.96 322.29C281.983 322.342 282.009 322.392 282.04 322.44C282.098 322.52 282.165 322.594 282.24 322.66C282.274 322.702 282.311 322.742 282.35 322.78C282.484 322.902 282.632 323.009 282.79 323.1L321.65 345.53C321.815 345.629 321.989 345.713 322.17 345.78H322.26L322.73 345.92H322.83C323.011 345.96 323.195 345.99 323.38 346.01H323.47C323.656 346.02 323.843 346.02 324.03 346.01H324.13H324.7H324.8L325.22 345.93L325.56 345.85L325.82 345.77C326.056 345.692 326.284 345.592 326.5 345.47L350 331.86C350.155 331.772 350.302 331.672 350.44 331.56C350.545 331.457 350.642 331.347 350.73 331.23C350.799 331.128 350.853 331.017 350.89 330.9C350.905 330.793 350.905 330.686 350.89 330.58V329.08L351 329.01Z" fill="#E0E0E0"/>
<path opacity="0.2" d="M351 329.01C351.025 329.152 351.025 329.297 351 329.44C350.963 329.557 350.909 329.668 350.84 329.77C350.754 329.889 350.657 329.999 350.55 330.1C350.412 330.215 350.265 330.319 350.11 330.41L326.56 344.09C326.344 344.212 326.116 344.312 325.88 344.39L325.62 344.47L325.28 344.56L324.86 344.63H324.76H324.19H324C323.813 344.64 323.626 344.64 323.44 344.63H323.35C323.165 344.61 322.981 344.58 322.8 344.54H322.7L322.23 344.4H322.14C321.959 344.333 321.785 344.249 321.62 344.15L282.76 321.72C282.605 321.629 282.457 321.525 282.32 321.41L282.21 321.29C282.138 321.218 282.071 321.141 282.01 321.06C281.979 321.012 281.953 320.962 281.93 320.91C281.883 320.842 281.846 320.768 281.82 320.69C281.814 320.636 281.814 320.583 281.82 320.53C281.814 320.456 281.814 320.383 281.82 320.31V321.69C281.814 321.763 281.814 321.836 281.82 321.91C281.83 322.047 281.879 322.178 281.96 322.29C281.983 322.342 282.009 322.392 282.04 322.44C282.098 322.52 282.165 322.594 282.24 322.66C282.274 322.702 282.311 322.742 282.35 322.78C282.484 322.902 282.632 323.009 282.79 323.1L321.65 345.53C321.815 345.629 321.989 345.713 322.17 345.78H322.26L322.73 345.92H322.83C323.011 345.96 323.195 345.99 323.38 346.01H323.47C323.656 346.02 323.843 346.02 324.03 346.01H324.13H324.7H324.8L325.22 345.93L325.56 345.85L325.82 345.77C326.056 345.692 326.284 345.592 326.5 345.47L350 331.86C350.155 331.772 350.302 331.672 350.44 331.56C350.545 331.457 350.642 331.347 350.73 331.23C350.799 331.128 350.853 331.017 350.89 330.9C350.905 330.793 350.905 330.686 350.89 330.58V329.08L351 329.01Z" fill="black"/>
<path d="M281.77 320.71C281.797 320.788 281.834 320.862 281.88 320.93C281.903 320.982 281.929 321.032 281.96 321.08C282.021 321.161 282.088 321.238 282.16 321.31L282.27 321.43C282.407 321.545 282.555 321.649 282.71 321.74L321.57 344.17C321.735 344.269 321.909 344.352 322.09 344.42H322.18L322.65 344.56H322.75C322.931 344.6 323.115 344.63 323.3 344.65H323.39C323.577 344.66 323.764 344.66 323.95 344.65H324.05H324.62H324.72L325.14 344.58L325.48 344.49L325.74 344.41C325.976 344.332 326.204 344.232 326.42 344.11L350 330.49C350.155 330.399 350.303 330.295 350.44 330.18C350.547 330.079 350.645 329.969 350.73 329.85C350.799 329.748 350.853 329.637 350.89 329.52C350.915 329.377 350.915 329.232 350.89 329.09C350.847 328.802 350.733 328.53 350.558 328.298C350.384 328.066 350.154 327.881 349.89 327.76L311.03 305.33C310.283 304.945 309.455 304.745 308.615 304.745C307.775 304.745 306.947 304.945 306.2 305.33L282.7 318.93C282.426 319.055 282.189 319.251 282.014 319.496C281.838 319.742 281.73 320.029 281.7 320.33C281.694 320.403 281.694 320.476 281.7 320.55C281.717 320.605 281.741 320.659 281.77 320.71Z" fill="#E0E0E0"/>
<path d="M285 320.33L322.76 342.09L322.9 342.16H322.99L323.28 342.25H323.49H323.63H324C324.13 342.259 324.26 342.259 324.39 342.25H324.64L324.94 342.17C325.031 342.143 325.118 342.106 325.2 342.06L337.38 335.09L298.38 312.58L285 320.33Z" fill="#E0E0E0"/>
<path d="M320.92 314.34L313.82 318.52C313.71 318.581 313.618 318.671 313.554 318.78C313.49 318.889 313.456 319.013 313.456 319.14C313.456 319.266 313.49 319.39 313.554 319.499C313.618 319.608 313.71 319.698 313.82 319.76L324.44 325.89C324.621 325.995 324.826 326.051 325.035 326.051C325.244 326.051 325.449 325.995 325.63 325.89L332.73 321.72C332.838 321.656 332.927 321.565 332.989 321.457C333.051 321.348 333.084 321.225 333.084 321.1C333.084 320.974 333.051 320.851 332.989 320.743C332.927 320.634 332.838 320.543 332.73 320.48L322.11 314.34C321.929 314.234 321.724 314.179 321.515 314.179C321.306 314.179 321.101 314.234 320.92 314.34Z" fill="#E0E0E0"/>
<path opacity="0.4" d="M285 320.33L322.76 342.09L322.9 342.16H322.99L323.28 342.25H323.49H323.63H324C324.13 342.259 324.26 342.259 324.39 342.25H324.64L324.94 342.17C325.031 342.143 325.118 342.106 325.2 342.06L337.38 335.09L298.38 312.58L285 320.33Z" fill="black"/>
<path opacity="0.4" d="M320.92 314.34L313.82 318.52C313.71 318.581 313.618 318.671 313.554 318.78C313.49 318.889 313.456 319.013 313.456 319.14C313.456 319.266 313.49 319.39 313.554 319.499C313.618 319.608 313.71 319.698 313.82 319.76L324.44 325.89C324.621 325.995 324.826 326.051 325.035 326.051C325.244 326.051 325.449 325.995 325.63 325.89L332.73 321.72C332.838 321.656 332.927 321.565 332.989 321.457C333.051 321.348 333.084 321.225 333.084 321.1C333.084 320.974 333.051 320.851 332.989 320.743C332.927 320.634 332.838 320.543 332.73 320.48L322.11 314.34C321.929 314.234 321.724 314.179 321.515 314.179C321.306 314.179 321.101 314.234 320.92 314.34Z" fill="black"/>
<path d="M323.76 342.78L319.76 317.2C319.653 316.506 319.391 315.844 318.995 315.265C318.599 314.685 318.078 314.201 317.47 313.85L278.32 291.09C278.169 291.005 278.001 290.954 277.828 290.942C277.655 290.93 277.481 290.956 277.32 291.02L276.39 291.48L276.7 291.6C276.595 291.814 276.56 292.055 276.6 292.29L280.6 317.88C280.709 318.572 280.971 319.231 281.367 319.809C281.763 320.387 282.283 320.869 282.89 321.22L322 343.98C322.083 344.025 322.17 344.061 322.26 344.09V344.46L323.16 344.02C323.378 343.903 323.554 343.72 323.662 343.497C323.77 343.274 323.804 343.023 323.76 342.78Z" fill="#E0E0E0"/>
<path opacity="0.3" d="M323.76 342.78L319.76 317.2C319.653 316.506 319.391 315.844 318.995 315.265C318.599 314.685 318.078 314.201 317.47 313.85L278.32 291.09C278.169 291.005 278.001 290.954 277.828 290.942C277.655 290.93 277.481 290.956 277.32 291.02L276.39 291.48L276.7 291.6C276.595 291.814 276.56 292.055 276.6 292.29L280.6 317.88C280.709 318.572 280.971 319.231 281.367 319.809C281.763 320.387 282.283 320.869 282.89 321.22L322 343.98C322.083 344.025 322.17 344.061 322.26 344.09V344.46L323.16 344.02C323.378 343.903 323.554 343.72 323.662 343.497C323.77 343.274 323.804 343.023 323.76 342.78Z" fill="black"/>
<path d="M316.66 314.24L277.53 291.49C277.337 291.377 277.115 291.321 276.891 291.329C276.667 291.337 276.45 291.409 276.266 291.536C276.081 291.663 275.937 291.84 275.849 292.046C275.761 292.252 275.734 292.479 275.77 292.7L279.77 318.28C279.884 318.973 280.149 319.632 280.546 320.211C280.944 320.79 281.464 321.274 282.07 321.63L321.2 344.38C321.393 344.493 321.615 344.548 321.839 344.54C322.063 344.532 322.28 344.46 322.464 344.333C322.649 344.206 322.793 344.03 322.881 343.824C322.969 343.617 322.996 343.391 322.96 343.17L318.96 317.59C318.849 316.896 318.585 316.235 318.187 315.656C317.789 315.076 317.268 314.593 316.66 314.24Z" fill="#E0E0E0"/>
<path d="M297.7 314.9C298.692 315.522 299.547 316.339 300.214 317.302C300.881 318.265 301.346 319.352 301.58 320.5C301.84 322.5 300.52 323.24 298.58 322.14C297.589 321.519 296.734 320.704 296.067 319.743C295.4 318.782 294.935 317.695 294.7 316.55C294.48 314.55 295.81 313.82 297.7 314.9Z" fill="white"/>
<path d="M382.05 298.43L377.85 282.81L363.12 286.09L366.65 298.2L345.06 313.53L337.8 316.59C335.877 317.399 334.214 318.72 332.99 320.41L327.07 328.61C327.019 328.719 326.999 328.84 327.01 328.96C327.042 329.177 327.137 329.381 327.284 329.545C327.43 329.709 327.621 329.827 327.833 329.884C328.045 329.942 328.27 329.936 328.479 329.868C328.688 329.799 328.873 329.671 329.01 329.5C330.32 328 331.42 326.61 332.79 325.3L329.3 330.01C329.192 330.168 329.118 330.347 329.082 330.535C329.046 330.723 329.048 330.917 329.09 331.104C329.131 331.291 329.21 331.468 329.322 331.624C329.433 331.78 329.576 331.911 329.74 332.01C330.135 332.246 330.558 332.43 331 332.56C331.855 332.777 332.75 332.778 333.605 332.563C334.461 332.349 335.249 331.925 335.9 331.33L340.47 327.14L341.73 326.7C345.423 325.396 348.627 322.991 350.91 319.81L376.22 309.98C378.447 309.115 380.275 307.456 381.351 305.323C382.428 303.191 382.677 300.735 382.05 298.43Z" fill="#FFA8A7"/>
<path opacity="0.3" d="M382.05 298.43L377.85 282.81L363.12 286.09L366.65 298.2L345.06 313.53L337.8 316.59C335.877 317.399 334.214 318.72 332.99 320.41L327.07 328.61C327.019 328.719 326.999 328.84 327.01 328.96C327.042 329.177 327.137 329.381 327.284 329.545C327.43 329.709 327.621 329.827 327.833 329.884C328.045 329.942 328.27 329.936 328.479 329.868C328.688 329.799 328.873 329.671 329.01 329.5C330.32 328 331.42 326.61 332.79 325.3L329.3 330.01C329.192 330.168 329.118 330.347 329.082 330.535C329.046 330.723 329.048 330.917 329.09 331.104C329.131 331.291 329.21 331.468 329.322 331.624C329.433 331.78 329.576 331.911 329.74 332.01C330.135 332.246 330.558 332.43 331 332.56C331.855 332.777 332.75 332.778 333.605 332.563C334.461 332.349 335.249 331.925 335.9 331.33L340.47 327.14L341.73 326.7C345.423 325.396 348.627 322.991 350.91 319.81L376.22 309.98C378.447 309.115 380.275 307.456 381.351 305.323C382.428 303.191 382.677 300.735 382.05 298.43Z" fill="black"/>
<path d="M380.16 284.85L379.71 282.78C374.36 258.46 370.09 256.73 362.92 253.4C355.92 259.48 357.11 269.82 357.11 269.82L363.36 288.53L363.55 289.07C366.46 289.528 369.433 289.39 372.288 288.664C375.143 287.939 377.821 286.641 380.16 284.85Z" fill="#455A64"/>
<path opacity="0.3" d="M380.16 284.85L379.71 282.78C374.36 258.46 370.09 256.73 362.92 253.4C355.92 259.48 357.11 269.82 357.11 269.82L363.36 288.53L363.55 289.07C366.46 289.528 369.433 289.39 372.288 288.664C375.143 287.939 377.821 286.641 380.16 284.85Z" fill="white"/>
<path d="M352.94 233.94C354.431 229.531 355.218 224.914 355.27 220.26C355.27 217.78 355.02 215.07 353.27 213.26C351.18 211.12 347.6 211.14 344.93 212.49C342.26 213.84 340.3 216.23 338.42 218.55C339.346 222.599 340.728 226.531 342.54 230.27C343.48 232.09 344.62 233.94 346.44 234.87C348.26 235.8 351.32 235.2 352.94 233.94Z" fill="#455A64"/>
<path d="M339.73 262.51C336.14 264.78 331.48 260.57 335.65 254.43C335.677 254.398 335.694 254.36 335.7 254.32V244.09L349.24 236.62L349.55 250.29C348.1 254.52 342.85 260.53 339.73 262.51Z" fill="#FFA8A7"/>
<path opacity="0.3" d="M339.73 262.51C336.14 264.78 331.48 260.57 335.65 254.43C335.677 254.398 335.694 254.36 335.7 254.32V244.09L349.24 236.62L349.55 250.29C348.1 254.52 342.85 260.53 339.73 262.51Z" fill="black"/>
<path opacity="0.2" d="M342.67 247.36C340.41 248.45 337.59 249.55 335.67 250.26V244.09L349.21 236.62C349.13 243.39 346.43 245.54 342.67 247.36Z" fill="black"/>
<path d="M323.88 217.85C323.378 224.588 323.472 231.358 324.16 238.08C324.299 239.462 324.724 240.8 325.409 242.008C326.093 243.217 327.022 244.27 328.136 245.099C329.25 245.929 330.524 246.518 331.878 246.828C333.232 247.138 334.636 247.162 336 246.9C338.22 246.44 340.34 245.9 342.14 245.43C343.74 244.996 345.193 244.139 346.347 242.949C347.502 241.76 348.314 240.282 348.7 238.67L349.2 236.59C349.795 237.335 350.623 237.859 351.552 238.077C352.481 238.294 353.456 238.193 354.32 237.79C355.187 237.384 355.938 236.768 356.506 235.998C357.074 235.228 357.44 234.328 357.57 233.38C357.742 232.445 357.659 231.481 357.33 230.59C356.986 229.705 356.312 228.988 355.45 228.59C354.657 228.316 353.799 228.293 352.992 228.524C352.185 228.755 351.469 229.228 350.94 229.88C349.9 231.204 349.268 232.802 349.12 234.48C346.625 231.672 345.345 227.99 345.56 224.24C344.296 224.107 343.126 223.508 342.28 222.56C341.927 222.088 341.671 221.55 341.527 220.979C341.382 220.407 341.353 219.813 341.44 219.23C336.15 221.88 328.85 221.16 323.88 217.85Z" fill="#FFA8A7"/>
<path opacity="0.3" d="M323.88 217.85C323.378 224.588 323.472 231.358 324.16 238.08C324.299 239.462 324.724 240.8 325.409 242.008C326.093 243.217 327.022 244.27 328.136 245.099C329.25 245.929 330.524 246.518 331.878 246.828C333.232 247.138 334.636 247.162 336 246.9C338.22 246.44 340.34 245.9 342.14 245.43C343.74 244.996 345.193 244.139 346.347 242.949C347.502 241.76 348.314 240.282 348.7 238.67L349.2 236.59C349.795 237.335 350.623 237.859 351.552 238.077C352.481 238.294 353.456 238.193 354.32 237.79C355.187 237.384 355.938 236.768 356.506 235.998C357.074 235.228 357.44 234.328 357.57 233.38C357.742 232.445 357.659 231.481 357.33 230.59C356.986 229.705 356.312 228.988 355.45 228.59C354.657 228.316 353.799 228.293 352.992 228.524C352.185 228.755 351.469 229.228 350.94 229.88C349.9 231.204 349.268 232.802 349.12 234.48C346.625 231.672 345.345 227.99 345.56 224.24C344.296 224.107 343.126 223.508 342.28 222.56C341.927 222.088 341.671 221.55 341.527 220.979C341.382 220.407 341.353 219.813 341.44 219.23C336.15 221.88 328.85 221.16 323.88 217.85Z" fill="black"/>
<path d="M333.33 229.17L328.63 234.87L332.95 236.39L333.33 229.17Z" fill="#F28F8F"/>
<path opacity="0.3" d="M333.33 229.17L328.63 234.87L332.95 236.39L333.33 229.17Z" fill="black"/>
<path d="M336.89 239.22L333.26 240.33C333.49 240.759 333.854 241.101 334.296 241.305C334.738 241.509 335.234 241.563 335.71 241.46C336.135 241.28 336.484 240.958 336.7 240.55C336.915 240.142 336.982 239.672 336.89 239.22Z" fill="#F28F8F"/>
<path opacity="0.4" d="M336.89 239.22L333.26 240.33C333.49 240.759 333.854 241.101 334.296 241.305C334.738 241.509 335.234 241.563 335.71 241.46C336.135 241.28 336.484 240.958 336.7 240.55C336.915 240.142 336.982 239.672 336.89 239.22Z" fill="black"/>
<path d="M334.52 241.39C334.902 241.527 335.315 241.551 335.71 241.46C336.046 241.332 336.337 241.109 336.547 240.817C336.757 240.526 336.876 240.179 336.89 239.82C336.405 239.745 335.91 239.833 335.48 240.07C335.001 240.369 334.657 240.842 334.52 241.39Z" fill="#F28F8F"/>
<path d="M339.73 230.42C339.716 230.674 339.626 230.919 339.473 231.123C339.32 231.326 339.11 231.48 338.869 231.565C338.629 231.649 338.369 231.661 338.122 231.597C337.875 231.534 337.652 231.399 337.482 231.209C337.311 231.019 337.201 230.783 337.165 230.531C337.129 230.279 337.168 230.021 337.278 229.791C337.388 229.561 337.564 229.369 337.783 229.239C338.002 229.108 338.255 229.046 338.51 229.06C338.679 229.068 338.846 229.111 338.999 229.184C339.152 229.257 339.289 229.36 339.402 229.486C339.516 229.613 339.603 229.76 339.659 229.92C339.715 230.08 339.739 230.25 339.73 230.42Z" fill="#263238"/>
<path d="M328.93 229.42C328.918 229.675 328.83 229.92 328.678 230.126C328.526 230.331 328.316 230.486 328.076 230.572C327.835 230.658 327.575 230.671 327.327 230.609C327.079 230.547 326.856 230.412 326.684 230.223C326.513 230.033 326.402 229.797 326.365 229.544C326.328 229.292 326.367 229.034 326.477 228.803C326.587 228.572 326.762 228.38 326.982 228.249C327.202 228.118 327.455 228.056 327.71 228.07C328.05 228.088 328.37 228.24 328.599 228.493C328.827 228.746 328.946 229.079 328.93 229.42Z" fill="#263238"/>
<path d="M328 224.23L325 226.09C324.895 225.728 324.902 225.342 325.022 224.985C325.142 224.627 325.368 224.315 325.67 224.09C326.031 223.887 326.442 223.793 326.856 223.818C327.269 223.843 327.666 223.985 328 224.23Z" fill="#263238"/>
<path d="M339 224.66L341.76 226.79C341.889 226.449 341.915 226.078 341.835 225.722C341.755 225.366 341.573 225.042 341.31 224.79C340.974 224.559 340.58 224.425 340.173 224.402C339.766 224.379 339.36 224.468 339 224.66Z" fill="#263238"/>
<path d="M342.06 218.77C341.905 219.682 341.472 220.524 340.82 221.18C340.485 221.507 340.087 221.764 339.651 221.936C339.215 222.108 338.749 222.19 338.28 222.18C337.808 222.17 337.346 222.041 336.936 221.805C336.527 221.569 336.185 221.234 335.94 220.83C335.597 221.304 335.133 221.68 334.597 221.917C334.062 222.154 333.472 222.245 332.89 222.18C332.279 222.131 331.689 221.929 331.175 221.594C330.662 221.259 330.241 220.8 329.95 220.26C329.556 220.83 329.002 221.269 328.357 221.522C327.712 221.775 327.006 221.83 326.33 221.68C325.673 221.507 325.084 221.138 324.642 220.622C324.201 220.105 323.928 219.466 323.86 218.79C322.765 219.063 321.606 218.898 320.63 218.33C320.15 218.04 319.755 217.628 319.484 217.136C319.214 216.645 319.078 216.09 319.09 215.53C319.122 214.974 319.335 214.443 319.696 214.019C320.057 213.595 320.546 213.3 321.09 213.18C320.771 212.513 320.68 211.76 320.832 211.037C320.984 210.314 321.37 209.661 321.93 209.18C322.5 208.71 323.211 208.446 323.949 208.429C324.688 208.413 325.41 208.646 326 209.09C326.014 208.603 326.165 208.129 326.435 207.724C326.706 207.319 327.085 206.999 327.53 206.8C327.983 206.619 328.478 206.572 328.956 206.664C329.435 206.757 329.877 206.984 330.23 207.32C330.323 206.47 330.68 205.671 331.252 205.036C331.824 204.401 332.582 203.962 333.417 203.782C334.253 203.601 335.124 203.689 335.907 204.031C336.69 204.374 337.345 204.954 337.78 205.69C338.109 205.121 338.59 204.656 339.17 204.346C339.75 204.037 340.404 203.896 341.06 203.94C341.692 203.989 342.296 204.22 342.8 204.605C343.304 204.99 343.686 205.513 343.9 206.11C344.371 205.394 345.056 204.845 345.856 204.54C346.657 204.236 347.534 204.191 348.361 204.412C349.189 204.634 349.926 205.11 350.468 205.773C351.01 206.437 351.329 207.254 351.38 208.11C351.873 207.691 352.509 207.478 353.155 207.516C353.801 207.553 354.408 207.837 354.85 208.31C355.264 208.808 355.514 209.423 355.566 210.069C355.618 210.715 355.469 211.361 355.14 211.92C354.796 212.466 354.33 212.925 353.778 213.26C353.226 213.595 352.603 213.797 351.96 213.85C352.257 214.585 352.278 215.403 352.018 216.152C351.759 216.901 351.237 217.531 350.549 217.925C349.861 218.319 349.054 218.45 348.276 218.295C347.499 218.14 346.804 217.708 346.32 217.08C346.389 217.621 346.274 218.17 345.993 218.638C345.711 219.106 345.281 219.466 344.77 219.66C344.285 219.843 343.751 219.855 343.258 219.693C342.765 219.531 342.342 219.205 342.06 218.77Z" fill="#263238"/>
</svg>
